<?xml version="1.0" encoding="UTF-8" standalone="no"?>
<!-- Created with Inkscape (http://www.inkscape.org/) -->

<svg
   xmlns:dc="http://purl.org/dc/elements/1.1/"
   xmlns:cc="http://creativecommons.org/ns#"
   xmlns:rdf="http://www.w3.org/1999/02/22-rdf-syntax-ns#"
   xmlns:svg="http://www.w3.org/2000/svg"
   xmlns="http://www.w3.org/2000/svg"
   xmlns:sodipodi="http://sodipodi.sourceforge.net/DTD/sodipodi-0.dtd"
   xmlns:inkscape="http://www.inkscape.org/namespaces/inkscape"
   id="svg2"
   sodipodi:docname="owl icon.svg"
   viewBox="0 0 600 800"
   version="1.1"
   inkscape:version="0.92.2 (5c3e80d, 2017-08-06)">
  <sodipodi:namedview
     id="base"
     bordercolor="#666666"
     inkscape:pageshadow="2"
     inkscape:window-y="-9"
     pagecolor="#ffffff"
     inkscape:window-height="1001"
     inkscape:window-maximized="1"
     inkscape:zoom="0.62420618"
     inkscape:window-x="-9"
     showgrid="false"
     borderopacity="1.0"
     inkscape:current-layer="capa1"
     inkscape:cx="-480.19093"
     inkscape:cy="464.08139"
     showguides="true"
     inkscape:guide-bbox="true"
     inkscape:window-width="1920"
     inkscape:pageopacity="0.0"
     inkscape:document-units="px" />
  <defs
     id="defs14" />
  <title
     id="title3055">Owl</title>
  <g
     inkscape:groupmode="layer"
     id="layer1"
     inkscape:label="Capa 2"
     style="display:inline" />
  <g
     id="capa1"
     inkscape:label="Capa 1"
     inkscape:groupmode="layer"
     transform="translate(0,-252.36)"
     style="display:inline">
    <g
       id="g63"
       transform="matrix(0.920398,0,0,0.87980769,22.372697,92.249779)">
      <ellipse
         ry="333.22324"
         rx="322.00897"
         cy="634.22888"
         cx="301.18256"
         id="path3759"
         style="display:inline;fill:#000000;stroke-width:0.73377311" />
      <ellipse
         ry="302.80139"
         rx="279.60376"
         cy="634.52576"
         cx="300.38589"
         id="path3761"
         style="display:inline;fill:#ffff00;stroke-width:0.98746359" />
      <path
         id="path2995"
         d="m 184.25906,382.99475 c -1.12003,0.005 -2.20276,0.0191 -3.24102,0.0411 -0.007,1.4e-4 -0.0142,-1.4e-4 -0.0207,0 -1.03507,0.0221 -2.01249,0.0479 -2.95016,0.0822 -0.007,2.4e-4 -0.0142,-2.4e-4 -0.0208,0 -0.93634,0.0344 -1.83711,0.0818 -2.6593,0.12325 -0.006,3.2e-4 -0.0142,-3.2e-4 -0.0207,0 -0.82013,0.0414 -1.57417,0.0799 -2.26453,0.12325 -0.006,4e-4 -0.0142,-3.9e-4 -0.0207,0 -1.38071,0.0871 -2.48232,0.18228 -3.24102,0.24651 -0.005,4.1e-4 -0.0142,-4.1e-4 -0.0207,0 -0.73849,0.0627 -1.16345,0.10271 -1.16345,0.10271 l 24.2249,13.57807 c -1.2774,0.24425 -2.5266,0.50932 -3.73964,0.78059 -0.006,10e-4 -0.0142,-10e-4 -0.0207,0 -0.23076,0.0517 -0.43754,0.11147 -0.66482,0.16434 -3.35783,0.77021 -6.4026,1.58787 -8.80893,2.3007 -0.0231,0.007 -0.0393,0.0137 -0.0623,0.0205 -0.13802,0.041 -0.24016,0.0831 -0.37396,0.12325 -0.68477,0.20521 -1.34315,0.39649 -1.91137,0.57517 -0.005,0.002 -0.0142,-0.002 -0.0207,0 -0.67686,0.21292 -1.2655,0.41657 -1.74517,0.57518 -0.005,0.002 -0.0142,-0.002 -0.0207,0 -0.94725,0.3136 -1.49586,0.51355 -1.49586,0.51355 l 29.04488,7.99065 c -1.34455,0.13496 -2.69893,0.32305 -4.03051,0.53409 -1.345,0.21318 -2.66029,0.45513 -3.94739,0.71901 -0.007,0.001 -0.0142,-10e-4 -0.0207,0 -0.6353,0.13039 -1.27779,0.2731 -1.89063,0.41083 -0.006,10e-4 -0.0142,-0.001 -0.0207,0 -0.61237,0.13773 -1.20213,0.26907 -1.78672,0.41084 -0.007,10e-4 -0.0142,-0.001 -0.0207,0 -1.17461,0.28507 -2.29497,0.58129 -3.32412,0.86277 -0.006,0.002 -0.0142,-10e-4 -0.0208,0 -0.45691,0.12506 -0.82544,0.24547 -1.24654,0.36975 -0.53651,0.15346 -1.10627,0.31002 -1.57896,0.45192 -0.85949,0.25802 -1.56979,0.48035 -2.18143,0.67786 -1.19203,0.38413 -1.89063,0.6368 -1.89063,0.6368 l 18.03338,4.97115 -19.57112,14.76983 16.57941,-3.32779 -20.52647,15.4883 16.66184,-3.34837 c -0.47475,0.65997 -0.94139,1.33612 -1.39201,2.01311 l -17.22295,13.0029 c 0,0 5.08597,-0.88584 11.2608,-2.07471 -4.73674,10.61806 -7.21269,22.24054 -7.9779,33.05185 -0.11772,1.66334 -0.21104,3.31182 -0.24931,4.93007 -0.0191,0.80912 -0.0207,1.60806 -0.0207,2.40338 0,0.52288 0.007,1.05687 0.0207,1.58169 1.8e-4,0.007 -1.8e-4,0.0137 0,0.0205 0.0141,0.51796 0.0348,1.02053 0.0623,1.54068 0.001,0.0206 -10e-4,0.0411 0,0.0616 0.0273,0.50668 0.0641,1.01105 0.10387,1.5201 5.3e-4,0.007 -5.2e-4,0.0138 0,0.0205 0.001,0.0206 -10e-4,0.0411 0,0.0616 0.04,0.50276 0.0936,1.01481 0.14544,1.52011 0.10949,1.06647 0.25303,2.13091 0.41551,3.20454 0.0146,0.0882 0.0276,0.17879 0.0416,0.26705 0.0782,0.50352 0.15923,1.01526 0.24931,1.5201 0.0947,0.5323 0.20414,1.06871 0.31164,1.60228 l 0.0207,0.10271 c 0.1372,0.68258 0.28372,1.36812 0.43629,2.05419 0.044,0.19804 0.077,0.39823 0.12466,0.59572 0.0464,0.19251 0.0976,0.38257 0.14543,0.57517 0.0686,0.27487 0.13389,0.54716 0.20776,0.82168 l -2.18143,8.68941 c -0.20752,0.33678 -0.42458,0.67726 -0.64405,1.00653 -0.13708,0.20558 -0.27391,0.41348 -0.41551,0.61626 -0.30981,0.44357 -0.64582,0.88386 -0.9765,1.31468 -0.0902,0.11737 -0.17842,0.23275 -0.27008,0.34921 -0.39985,0.50846 -0.79859,1.00738 -1.22581,1.49953 -0.0354,0.0408 -0.0683,0.0826 -0.10388,0.12326 -0.0541,0.0619 -0.11166,0.12323 -0.1662,0.18487 -0.31996,0.3614 -0.6634,0.7148 -0.99724,1.06819 -0.0968,0.10246 -0.19295,0.2063 -0.29086,0.30813 -0.31301,0.32574 -0.63155,0.64594 -0.95569,0.9655 -0.18754,0.18477 -0.36983,0.37182 -0.56094,0.55463 -0.40365,0.38646 -0.80703,0.77192 -1.22581,1.15035 -0.12324,0.11131 -0.24947,0.21801 -0.37396,0.32867 -0.49798,0.44294 -0.99977,0.88117 -1.5166,1.31469 -0.61486,0.51534 -1.23099,1.01586 -1.86982,1.5201 -0.0349,0.0276 -0.0689,0.0546 -0.10388,0.0822 -0.55463,0.4365 -1.13319,0.86414 -1.70361,1.29418 -0.11842,0.0893 -0.23414,0.17795 -0.35319,0.26704 -0.0231,0.0173 -0.0392,0.0443 -0.0623,0.0616 -0.67207,0.50217 -1.36661,1.00336 -2.05683,1.49953 -0.71376,0.51311 -1.43091,1.0106 -2.16068,1.5201 -0.33545,0.23403 -0.65895,0.46473 -0.99724,0.69843 -1.13978,0.78802 -2.28474,1.57124 -3.44878,2.36236 -1.48622,1.00954 -2.96485,2.00621 -4.46683,3.04021 -0.0285,0.0197 -0.0546,0.0419 -0.0831,0.0616 -0.73124,0.50434 -1.44985,1.0056 -2.18142,1.5201 -0.0284,0.02 -0.0547,0.0416 -0.0831,0.0616 -0.11736,0.0826 -0.2359,0.16362 -0.35319,0.2465 -0.64153,0.45348 -1.29408,0.91305 -1.93211,1.37634 -0.0157,0.0114 -0.0259,0.0297 -0.0416,0.0411 -0.73816,0.53627 -1.47179,1.07094 -2.20223,1.62285 -0.0701,0.053 -0.13772,0.11121 -0.20776,0.16433 -0.76482,0.58031 -1.53296,1.16586 -2.28534,1.76661 -0.0874,0.0698 -0.16212,0.1559 -0.24931,0.22596 -0.67719,0.54426 -1.35139,1.07982 -2.01522,1.64336 -0.17504,0.14854 -0.3454,0.30194 -0.51939,0.45192 -0.58101,0.50102 -1.15626,1.00205 -1.72442,1.52011 -0.1262,0.11504 -0.24846,0.23327 -0.37397,0.34921 -0.60256,0.55676 -1.20147,1.12662 -1.78671,1.70502 -0.40702,0.40224 -0.82804,0.81904 -1.22581,1.23251 -0.2944,0.3062 -0.58364,0.61175 -0.87258,0.92436 -0.0563,0.0608 -0.1102,0.12383 -0.16621,0.18488 -0.0497,0.0542 -0.0959,0.10988 -0.14543,0.16433 -0.29151,0.32 -0.56636,0.63846 -0.85177,0.96551 -0.0319,0.0365 -0.0721,0.0661 -0.10388,0.10271 -0.30142,0.347 -0.59916,0.69244 -0.89339,1.04767 -0.31787,0.38377 -0.62594,0.77717 -0.93488,1.17086 -0.006,0.008 -0.0148,0.0129 -0.0207,0.0205 -0.29083,0.37101 -0.56929,0.74963 -0.85178,1.12984 -0.0262,0.0352 -0.057,0.0674 -0.0831,0.10271 -0.2613,0.35343 -0.51492,0.70651 -0.76867,1.06818 -0.28034,0.39935 -0.56027,0.80229 -0.83103,1.21201 -0.27101,0.41007 -0.5285,0.83226 -0.78948,1.25302 -0.25878,0.41727 -0.52021,0.84541 -0.76867,1.27361 -0.20491,0.35307 -0.40485,0.70749 -0.6025,1.06818 -0.0418,0.0763 -0.0832,0.14927 -0.12465,0.22596 -0.10047,0.18564 -0.19237,0.36694 -0.29087,0.55463 -0.24837,0.47326 -0.49163,0.95131 -0.72718,1.43794 -0.19025,0.39308 -0.37939,0.7894 -0.56095,1.19143 -0.13829,0.30607 -0.2824,0.61301 -0.41551,0.92436 -0.006,0.0139 -0.0148,0.0272 -0.0207,0.0411 -0.16155,0.37889 -0.30336,0.76344 -0.45706,1.15035 -0.11692,0.29426 -0.24092,0.58432 -0.35319,0.88334 -0.10185,0.27115 -0.19291,0.54657 -0.29086,0.82168 -0.0146,0.0408 -0.0271,0.0823 -0.0416,0.12325 -0.12624,0.35746 -0.25445,0.70395 -0.37397,1.06818 -0.0445,0.13543 -0.0811,0.27447 -0.12465,0.41084 -0.16203,0.50791 -0.32914,1.01941 -0.47785,1.54068 -0.002,0.007 0.002,0.0141 0,0.0205 -0.1318,0.46268 -0.25296,0.92337 -0.37396,1.39685 -0.12001,0.46897 -0.22329,0.93763 -0.33241,1.41736 -0.0266,0.11692 -0.0572,0.23165 -0.0831,0.34922 -0.008,0.0347 -0.0132,0.0679 -0.0207,0.10271 -0.12278,0.56154 -0.24561,1.12839 -0.35319,1.70501 -0.13908,0.74477 -0.26676,1.49066 -0.39474,2.23904 -0.19625,1.14726 -0.38998,2.29597 -0.56094,3.45105 -0.006,0.0402 0.006,0.083 0,0.12325 -0.15771,1.07121 -0.29989,2.14787 -0.43629,3.22506 -0.0305,0.24018 -0.0745,0.4785 -0.10388,0.719 -0.0826,0.6764 -0.15415,1.35518 -0.22854,2.03369 -0.0698,0.63625 -0.14509,1.27248 -0.20775,1.91036 -0.0651,0.66287 -0.12952,1.32803 -0.18699,1.99254 -0.0597,0.68955 -0.0938,1.38358 -0.14543,2.07471 -0.0347,0.46579 -0.0728,0.9304 -0.10388,1.39685 -0.0365,0.5472 -0.0723,1.09533 -0.10387,1.64336 -0.0461,0.80169 -0.0891,1.6001 -0.12466,2.40337 -0.0274,0.6157 -0.041,1.23226 -0.0623,1.84878 -0.0139,0.40378 -0.0302,0.80787 -0.0416,1.21201 -0.0209,0.74056 -0.05,1.47711 -0.0623,2.21853 -0.0132,0.80091 -0.0175,1.60175 -0.0207,2.40338 -0.005,1.21444 0.004,2.42053 0.0207,3.63589 0.0171,1.21069 0.0446,2.42526 0.0831,3.63589 0.0384,1.20504 0.0864,2.41127 0.14544,3.61539 0.0586,1.19478 0.12929,2.38129 0.20775,3.5743 0.008,0.12325 0.0125,0.24652 0.0208,0.36975 0.0645,0.95532 0.13089,1.92227 0.20775,2.87588 0.0116,0.14401 0.0296,0.28741 0.0416,0.43138 0.0916,1.109 0.18294,2.22182 0.29087,3.3278 0.0836,0.85743 0.17684,1.7125 0.27008,2.56771 0.0426,0.39035 0.0801,0.78105 0.12466,1.17086 0.14219,1.24481 0.29512,2.4791 0.45706,3.71806 0.19928,1.5247 0.41608,3.02548 0.64405,4.53974 0.004,0.0279 0.0166,0.0543 0.0207,0.0822 0.25329,1.67859 0.52316,3.34902 0.81029,5.01223 0.22684,1.31403 0.45932,2.62043 0.70638,3.92355 0.0974,0.51427 0.19035,1.02822 0.29086,1.54068 0.25681,1.30851 0.534,2.60748 0.81029,3.90297 0.0582,0.27333 0.1071,0.54896 0.16621,0.82168 0.32139,1.48231 0.6724,2.95338 1.01798,4.41655 0.0451,0.1908 0.0792,0.38473 0.12465,0.57518 0.36732,1.53844 0.74999,3.06624 1.1427,4.58089 0.33942,1.30916 0.68138,2.61313 1.03879,3.90297 0.21183,0.76475 0.42615,1.52267 0.64405,2.28019 0.17458,0.60681 0.3618,1.2057 0.54017,1.80769 0.28399,0.95874 0.57931,1.90932 0.87258,2.85537 0.2069,0.66714 0.41192,1.33204 0.62328,1.99254 0.29832,0.9327 0.60725,1.8541 0.91413,2.77319 0.19445,0.58221 0.38397,1.16955 0.58172,1.74604 0.33184,0.9676 0.65646,1.92489 0.99724,2.87587 0.20497,0.57188 0.41521,1.13931 0.62327,1.70502 0.28246,0.76803 0.56386,1.52398 0.85178,2.28019 0.29444,0.77303 0.59343,1.54048 0.89339,2.3007 0.26198,0.66424 0.5235,1.3179 0.78948,1.97202 0.30182,0.74221 0.60742,1.48974 0.91413,2.21853 0.21896,0.52034 0.44349,1.0273 0.66483,1.54068 0.38721,0.89793 0.76933,1.79468 1.16344,2.67046 0.057,0.12687 0.12977,0.24336 0.18699,0.36975 0.53888,1.19019 1.0701,2.36565 1.62051,3.51271 0.57502,1.19834 1.15899,2.38438 1.74516,3.53322 0.0205,0.0403 0.0418,0.083 0.0623,0.12325 0.60527,1.18368 1.21277,2.3433 1.82826,3.47156 0.25476,4.53343 0.88681,8.91422 1.84902,13.06468 0.19245,0.8301 0.40495,1.63258 0.62327,2.44453 0.43793,1.63047 0.91699,3.21434 1.4543,4.76573 0.4653,1.53437 0.95742,3.05113 1.49586,4.53974 0.26909,0.74405 0.56351,1.46555 0.85177,2.19803 1.44374,3.66981 3.11677,7.19067 5.09004,10.55823 0.78762,1.34493 1.61227,2.64903 2.49309,3.94406 1.32646,1.95099 2.74826,3.83487 4.30062,5.66958 1.03314,1.22187 2.12219,2.40528 3.26177,3.5743 0.56472,0.57931 1.13259,1.15942 1.72442,1.72553 0.003,0.003 0.0172,-0.003 0.0207,0 0.59189,0.56597 1.18791,1.13174 1.80753,1.68444 0.004,0.003 0.0169,-0.003 0.0207,0 0.61968,0.55253 1.24263,1.10427 1.89063,1.64335 0.65964,0.54878 1.32566,1.0881 2.01522,1.62285 0.68131,0.52872 1.36635,1.04636 2.07758,1.56119 0.005,0.003 0.0163,-0.003 0.0207,0 0.70684,0.51148 1.42366,1.02243 2.16068,1.5201 0.005,0.003 0.016,-0.003 0.0207,0 0.73723,0.49757 1.47578,0.99542 2.24379,1.47902 0.005,0.003 0.0158,-0.003 0.0207,0 0.76821,0.48353 1.54804,0.96853 2.34763,1.43794 0.005,0.003 0.0156,-0.003 0.0207,0 0.79985,0.46936 1.61972,0.94171 2.45154,1.39686 0.005,0.003 0.0155,-0.003 0.0208,0 0.83209,0.45506 1.6699,0.91502 2.53464,1.35576 0.005,0.003 0.0153,-0.003 0.0207,0 4.34662,2.21433 9.11741,4.25906 14.33495,6.10093 0.006,0.002 0.0146,-0.002 0.0207,0 1.03905,0.36659 2.08249,0.71677 3.15791,1.06818 0.40282,0.13164 0.81781,0.2608 1.22581,0.3903 0.68889,0.21868 1.37379,0.44479 2.07758,0.65734 0.85676,0.30246 1.71146,0.58491 2.57619,0.86277 0.83961,0.26978 1.6876,0.53358 2.53465,0.78059 0.0126,0.004 0.0289,-0.004 0.0416,0 0.84705,0.24666 1.70102,0.49466 2.55545,0.719 0.007,0.002 0.0143,-0.002 0.0207,0 0.86081,0.22583 1.72888,0.45377 2.59694,0.65735 0.007,10e-4 0.0143,-0.001 0.0207,0 0.86806,0.20338 1.7217,0.39359 2.59694,0.57517 0.007,10e-4 0.0141,-10e-4 0.0207,0 0.87531,0.18143 1.75614,0.35351 2.63856,0.51355 1.78113,0.32452 3.57137,0.60345 5.38096,0.84219 -0.3836,2.01199 -0.67014,4.20581 -0.83103,6.61418 -0.11083,1.66005 -0.15341,3.23393 -0.14543,4.70407 -1.3e-4,0.0536 -2.7e-4,0.11096 0,0.16434 0.003,0.41895 0.008,0.80853 0.0207,1.21201 0.007,0.28914 0.009,0.58153 0.0207,0.86276 0.0188,0.44387 0.0529,0.87019 0.0831,1.29418 0.0214,0.30054 0.0562,0.59254 0.0831,0.88333 0.0226,0.24315 0.0359,0.48276 0.0623,0.71901 0.0129,0.11599 0.0277,0.23486 0.0416,0.34921 0.0548,0.45092 0.11829,0.88951 0.18698,1.31468 0.004,0.0268 -0.005,0.0555 0,0.0822 0.011,0.0674 0.0301,0.13866 0.0416,0.20542 0.0651,0.38085 0.13177,0.74944 0.20776,1.10927 0.0697,0.33001 0.14998,0.653 0.22853,0.9655 0.0819,0.32747 0.15806,0.63676 0.24931,0.94493 0.0925,0.31226 0.18911,0.61136 0.29086,0.90385 l -1.41275,7.80594 -0.0207,0.1438 c -0.0882,0.37528 -0.18165,0.75587 -0.27008,1.12984 -0.36733,1.55297 -0.73091,3.09608 -1.10108,4.6219 -0.11415,0.47049 -0.23891,0.94986 -0.35319,1.41737 -0.34505,1.41151 -0.69381,2.82926 -1.03879,4.21106 -0.13769,0.5515 -0.27804,1.11762 -0.41552,1.66387 -0.31976,1.27045 -0.63818,2.54017 -0.95568,3.77972 -0.16193,0.63219 -0.33758,1.28695 -0.49862,1.91037 -0.95815,3.70919 -1.9022,7.25838 -2.80477,10.59965 -0.59922,2.2184 -1.14416,4.18418 -1.70361,6.20367 -0.45435,1.63994 -0.92956,3.37717 -1.35039,4.86841 -0.74075,2.6249 -1.42705,4.98983 -2.03603,7.08681 -0.52743,1.81545 -1.03187,3.55662 -1.43349,4.90957 -0.0419,0.14093 -0.10511,0.35751 -0.14543,0.493 -0.8069,2.70533 -1.39202,4.62188 -1.39202,4.62188 2e-5,0 0.3931,0.31618 1.0596,0.80117 0.20104,0.14849 0.17141,0.11871 0.43629,0.30816 0.33516,0.23973 0.69973,0.49255 1.1219,0.78053 0.32477,0.22192 0.65185,0.4389 1.01798,0.67791 0.0443,0.0289 0.0798,0.0533 0.12465,0.0822 0.44444,0.28851 0.88342,0.56749 1.3712,0.86276 0.008,0.007 0.0128,0.0138 0.0207,0.0204 0.47149,0.28496 0.97902,0.56821 1.47511,0.84226 0.37755,0.2085 0.75723,0.42069 1.1427,0.61625 0.12343,0.0631 0.24886,0.12398 0.37396,0.18485 h 0.0207 c 0.12976,0.0638 0.26491,0.12378 0.39474,0.18491 0.31976,0.15441 0.63762,0.29699 0.95568,0.43141 0.0572,0.0243 0.10906,0.0592 0.16621,0.0822 h 0.0207 c 0.24871,0.1 0.50321,0.20128 0.74793,0.28752 h 0.0207 c 0.24433,0.0858 0.48882,0.15599 0.72719,0.226 0.21979,0.0644 0.42838,0.13225 0.64405,0.18484 h 0.0207 c 0.20875,0.0506 0.42404,0.0912 0.62327,0.12332 0.04,0.007 0.085,0.0151 0.12466,0.0204 0.22555,0.0322 0.45217,0.0519 0.66482,0.0618 0.007,2.6e-4 0.0142,-3.3e-4 0.0207,0 0.42276,0.0184 0.81853,-0.0204 1.18418,-0.10275 0.18329,-0.0421 0.35378,-0.0953 0.5194,-0.16433 h 0.0207 c 0.0566,-0.0243 0.11214,-0.0519 0.16621,-0.0822 0.0602,-0.0335 0.10869,-0.0856 0.1662,-0.12325 0.0392,-0.0237 0.0868,-0.0355 0.12466,-0.0618 h 0.0207 c 0.0318,-0.0224 0.0527,-0.0585 0.0831,-0.0822 0.10683,-0.0824 0.2168,-0.16447 0.31164,-0.26701 0.25996,-0.27747 0.4637,-0.61856 0.62327,-1.04767 0.0794,-0.21055 0.15617,-0.42662 0.20776,-0.67786 0.0516,-0.25123 0.0824,-0.52732 0.10388,-0.82167 l 0.18698,-2.5267 h 4.0928 l -0.22854,3.22512 c -0.0178,0.24427 -0.0121,0.49018 0.0207,0.71894 0.0329,0.22882 0.0932,0.44055 0.1662,0.65734 0.0687,0.20404 0.14427,0.40394 0.24931,0.59575 0.004,0.008 0.0142,0.0125 0.0207,0.0204 0.10624,0.19096 0.21378,0.37567 0.35319,0.5546 0.006,0.008 0.0142,0.0125 0.0207,0.0204 0.14121,0.17879 0.30592,0.36738 0.47785,0.53402 0.007,0.007 0.0134,0.0138 0.0207,0.0204 0.17339,0.16631 0.3595,0.31855 0.56095,0.47243 0.008,0.007 0.0128,0.0138 0.0207,0.0204 0.0578,0.044 0.12715,0.0805 0.18698,0.12325 0.15083,0.10774 0.29328,0.22724 0.45707,0.32867 h 0.0207 c 0.0723,0.0447 0.1548,0.0799 0.22853,0.12325 0.0644,0.0381 0.1202,0.0862 0.18699,0.12326 0.10404,0.0572 0.2036,0.10911 0.31163,0.16433 0.009,0.007 0.0122,0.0138 0.0207,0.0204 0.13542,0.0687 0.29475,0.11983 0.43629,0.18491 0.12461,0.0572 0.24501,0.13015 0.37396,0.18491 h 0.0207 c 0.10805,0.0454 0.22353,0.0804 0.33242,0.12319 0.17471,0.0691 0.33789,0.14106 0.51939,0.20548 0.009,0 0.0122,0.0204 0.0207,0.0204 0.29505,0.10379 0.604,0.19641 0.91414,0.28759 0.23927,0.0705 0.48023,0.14231 0.72718,0.20542 0.0834,0.021 0.16519,0.0414 0.24931,0.0618 0.0759,0.0151 0.15276,0.0237 0.22854,0.0408 0.88734,0.20542 1.8046,0.36167 2.7424,0.4725 0.0425,0.007 0.0821,0.0158 0.12465,0.0204 h 0.0207 c 0.34662,0.0394 0.69082,0.0765 1.03879,0.10274 0.007,5.2e-4 0.014,-5.3e-4 0.0207,0 0.15001,0.0112 0.30358,0.0112 0.45707,0.0204 0.20259,0.0125 0.40532,0.0335 0.60249,0.0408 0.34603,0.0131 0.67719,0.0204 1.01798,0.0204 h 0.0207 0.0207 c 0.014,0 0.0275,7e-5 0.0416,0 0.33508,0 0.66941,-0.007 0.99724,-0.0204 0.0838,-0.007 0.1654,-0.0158 0.24931,-0.0204 0.25391,-0.0131 0.49986,-0.0204 0.74793,-0.0408 0.007,-5.9e-4 0.0142,5.9e-4 0.0207,0 0.0774,-0.007 0.15172,-0.0132 0.22853,-0.0204 0.0837,-0.008 0.16638,-0.0112 0.24931,-0.0204 0.16363,-0.0171 0.31769,-0.0408 0.47784,-0.0618 h 0.0207 c 0.14128,-0.0177 0.27662,-0.0394 0.41551,-0.0618 0.0903,-0.0145 0.18123,-0.0256 0.27009,-0.0408 0.0361,-0.007 0.068,-0.0145 0.10388,-0.0204 0.0408,-0.007 0.0843,-0.0131 0.12465,-0.0204 h 0.0207 c 0.29545,-0.0532 0.57471,-0.11878 0.85178,-0.18491 0.28141,-0.0673 0.55045,-0.14534 0.81029,-0.22593 h 0.0207 c 0.0368,-0.0112 0.0677,-0.0289 0.10388,-0.0408 0.0275,-0.009 0.0558,-0.0112 0.0831,-0.0204 0.19226,-0.0638 0.36222,-0.13416 0.54017,-0.20548 h 0.0207 c 0.0879,-0.0355 0.16646,-0.0671 0.24931,-0.10268 0.0285,-0.0125 0.0551,-0.0289 0.0831,-0.0408 0.0206,-0.009 0.0419,-0.0112 0.0623,-0.0204 0.0831,-0.0381 0.16905,-0.0818 0.24931,-0.12319 h 0.0207 c 0.1431,-0.0744 0.26754,-0.1619 0.39474,-0.2465 0.0126,-0.009 0.029,-0.0125 0.0416,-0.0204 0.0431,-0.0276 0.0832,-0.0539 0.12466,-0.0822 h 0.0207 c 0.0454,-0.0309 0.0809,-0.0692 0.12466,-0.10274 0.0201,-0.0151 0.0426,-0.0256 0.0623,-0.0408 0.10344,-0.0792 0.20082,-0.1621 0.29086,-0.2465 0.43864,-0.40801 0.70943,-0.86802 0.78948,-1.39685 0.0267,-0.1763 0.04,-0.36365 0.0207,-0.55467 l -0.58172,-5.73124 h 4.13441 l 0.56095,5.64907 c 0.0161,0.16013 0.039,0.30784 0.0831,0.45193 0.0883,0.28817 0.23187,0.54921 0.41552,0.78059 0.0918,0.11569 0.20018,0.22534 0.31164,0.32867 0.10665,0.0988 0.20783,0.20108 0.33241,0.28759 h 0.0207 c 0.12501,0.0858 0.25341,0.17268 0.39474,0.2465 h 0.0207 c 0.28934,0.14961 0.60825,0.2891 0.95569,0.39027 h 0.0207 c 0.52595,0.15178 1.10268,0.26017 1.72443,0.30816 0.20928,0.0138 0.42691,0.0138 0.64404,0.0204 0.0126,3.9e-4 0.0283,-2e-4 0.0416,0 1.29301,0.025 2.69865,-0.13647 4.05131,-0.47244 0.68344,-0.16972 1.36302,-0.38645 1.99447,-0.63676 0.2043,-0.0811 0.40697,-0.17814 0.6025,-0.26708 0.11748,-0.0539 0.23525,-0.108 0.35319,-0.16434 0.0847,-0.0414 0.16704,-0.0801 0.24931,-0.12325 0.0936,-0.0493 0.17997,-0.0936 0.27008,-0.14383 0.0929,-0.0519 0.18044,-0.1101 0.27009,-0.16433 0.17636,-0.10544 0.35561,-0.21351 0.51939,-0.32867 0.32823,-0.2304 0.63188,-0.48045 0.89339,-0.73951 0.13074,-0.12943 0.24237,-0.27339 0.35319,-0.41084 0.0787,-0.097 0.16035,-0.18728 0.22854,-0.28752 0.0278,-0.0408 0.0571,-0.0819 0.0831,-0.12332 0.0445,-0.0698 0.088,-0.13522 0.12465,-0.20536 0.0392,-0.0722 0.0703,-0.15243 0.10388,-0.22599 0.013,-0.0283 0.0293,-0.0539 0.0415,-0.0822 0.0505,-0.11871 0.0894,-0.24742 0.12466,-0.36975 0.0459,-0.15395 0.0856,-0.3125 0.10388,-0.47244 l 0.37396,-3.24569 h 4.11361 l -0.27009,2.32127 c -0.0174,0.15152 -0.0258,0.29055 -0.0207,0.43142 0.003,0.0764 0.0119,0.15244 0.0207,0.22593 0.0173,0.13791 0.0443,0.28364 0.0831,0.41084 0.003,0.009 0.018,0.0118 0.0207,0.0204 0.0317,0.0996 0.0595,0.19445 0.10388,0.28753 0.0305,0.0651 0.0675,0.12305 0.10387,0.18491 0.0275,0.0467 0.0523,0.0987 0.0831,0.14376 0.039,0.0565 0.0807,0.11076 0.12465,0.16433 0.0156,0.0191 0.0253,0.0427 0.0415,0.0618 0.0251,0.0289 0.0563,0.0546 0.0831,0.0822 0.0872,0.0918 0.18877,0.18373 0.29086,0.26701 0.41179,0.3363 0.93847,0.60035 1.55822,0.80117 0.22525,0.073 0.45872,0.146 0.70637,0.20542 0.0879,0.0204 0.17967,0.023 0.27009,0.0408 0.124,0.0256 0.24556,0.0618 0.37396,0.0822 0.10098,0.0164 0.20792,0.0302 0.31164,0.0408 0.1446,0.0151 0.28718,0.0263 0.43629,0.0408 0.25556,0.0263 0.52168,0.0493 0.78948,0.0618 0.2664,0.0145 0.5322,0.0223 0.81029,0.0204 0.83429,-0.007 1.71338,-0.0691 2.59694,-0.18484 0.47656,-0.0625 0.95562,-0.13318 1.43349,-0.226 0.40343,-0.0785 0.8069,-0.18832 1.205,-0.28758 0.31407,-0.0783 0.62728,-0.15579 0.93488,-0.24651 0.18644,-0.0552 0.37768,-0.10491 0.56094,-0.16433 0.0425,-0.0138 0.0824,-0.027 0.12466,-0.0408 0.0999,-0.0329 0.19212,-0.0684 0.29086,-0.10268 0.30664,-0.10662 0.59972,-0.23046 0.89339,-0.34924 0.16569,-0.067 0.33783,-0.13462 0.49862,-0.20542 0.14056,-0.0618 0.2791,-0.11997 0.41551,-0.18485 0.0378,-0.0177 0.0665,-0.0434 0.10388,-0.0618 0.2597,-0.12601 0.50582,-0.25426 0.74793,-0.39033 0.0678,-0.0381 0.14148,-0.0638 0.20776,-0.10267 0.058,-0.0342 0.10934,-0.0682 0.1662,-0.10268 0.2368,-0.14396 0.47123,-0.29824 0.68557,-0.45199 0.032,-0.023 0.0724,-0.0381 0.10388,-0.0618 0.008,-0.007 0.0128,-0.0145 0.0207,-0.0204 0.13494,-0.0999 0.27021,-0.2043 0.39474,-0.30809 0.0224,-0.0191 0.0402,-0.0427 0.0623,-0.0618 0.1138,-0.097 0.22828,-0.18748 0.33241,-0.28766 0.0294,-0.0283 0.0545,-0.0532 0.0831,-0.0822 0.12843,-0.12779 0.24156,-0.25749 0.35319,-0.39027 0.003,-0.007 -0.003,-0.0164 0,-0.0204 0.13498,-0.16131 0.26138,-0.32545 0.37397,-0.493 0.10523,-0.16631 0.21334,-0.34064 0.29086,-0.51352 0.003,-0.007 -0.003,-0.0145 0,-0.0204 0.079,-0.1784 0.13914,-0.34924 0.18698,-0.53415 h 4.3421 c 0.0479,0.18471 0.10722,0.35601 0.18699,0.53415 0.003,0.007 -0.003,0.0138 0,0.0204 0.0795,0.17525 0.17827,0.34603 0.29086,0.51352 0.1832,0.28962 0.40402,0.57399 0.66482,0.84225 0.0275,0.0283 0.0548,0.0546 0.0831,0.0822 0.0212,0.021 0.0407,0.0407 0.0623,0.0618 0.26935,0.25932 0.58286,0.50234 0.91413,0.73951 0.21438,0.15375 0.44881,0.30803 0.68557,0.45199 0.121,0.0733 0.24768,0.13469 0.374,0.20535 0.24206,0.13607 0.48818,0.26432 0.74793,0.39033 0.29458,0.14225 0.60053,0.282 0.91413,0.41084 0.36433,0.14968 0.73736,0.3006 1.12183,0.43135 0.15882,0.0539 0.31639,0.11365 0.47787,0.16433 0.14394,0.0454 0.29053,0.0809 0.43626,0.12332 0.28082,0.0818 0.5657,0.15435 0.85184,0.22593 0.40448,0.10123 0.81574,0.20779 1.22574,0.28759 0.47741,0.0927 0.95748,0.16354 1.43356,0.22599 0.88362,0.11569 1.76272,0.18025 2.59701,0.18485 0.27803,0 0.54382,-0.007 0.81022,-0.0204 0.26487,-0.0125 0.51577,-0.0362 0.76874,-0.0618 h 0.0207 c 0.12804,-0.0125 0.24924,-0.0283 0.37396,-0.0408 0.12472,-0.0125 0.2531,-0.0217 0.37397,-0.0408 0.12838,-0.0204 0.24997,-0.0565 0.37396,-0.0822 0.0541,-0.0112 0.11302,-0.009 0.16621,-0.0204 0.0583,-0.0125 0.10903,-0.0276 0.1662,-0.0414 0.22551,-0.0559 0.43753,-0.11793 0.64402,-0.18484 0.61968,-0.20082 1.14649,-0.46475 1.55822,-0.80117 0.0903,-0.0736 0.16993,-0.14863 0.24931,-0.22593 0.061,-0.0618 0.11242,-0.11931 0.1662,-0.18491 0.012,-0.0151 0.0299,-0.0256 0.0416,-0.0408 0.0643,-0.0822 0.11356,-0.17873 0.16621,-0.26708 0.0363,-0.0618 0.0734,-0.11983 0.10391,-0.18491 0.0131,-0.0283 0.0294,-0.0532 0.0415,-0.0822 0.0319,-0.0745 0.0592,-0.14738 0.0831,-0.22593 0.006,-0.0197 0.0154,-0.0414 0.0208,-0.0618 0.0381,-0.13897 0.0496,-0.30054 0.0623,-0.45199 0.0151,-0.17926 0.0227,-0.35733 0,-0.5546 l -0.27005,-2.32128 h 4.11361 l 0.37396,3.2457 c 0.0183,0.15993 0.058,0.31848 0.10385,0.47243 0.0353,0.12233 0.0743,0.25104 0.12472,0.36976 0.0122,0.0283 0.0286,0.0539 0.0415,0.0822 0.0104,0.0223 0.0311,0.0394 0.0416,0.0618 0.0524,0.10866 0.10159,0.22324 0.16621,0.32868 0.008,0.0131 0.0122,0.0276 0.0207,0.0408 0.005,0.008 0.0156,0.0125 0.0207,0.0204 0.17877,0.27957 0.3874,0.54691 0.64409,0.8011 0.13077,0.12956 0.26586,0.24611 0.41551,0.36982 0.14965,0.12365 0.31373,0.25453 0.47788,0.36969 0.19466,0.13693 0.38985,0.26662 0.60246,0.39033 0.3247,0.19103 0.6726,0.36706 1.03879,0.53409 h 0.0208 c 0.19552,0.0889 0.39816,0.18603 0.60246,0.26708 0.63145,0.25032 1.31104,0.46704 1.99448,0.63677 0.33813,0.084 0.67579,0.16394 1.01798,0.22593 0.68444,0.12404 1.36655,0.19227 2.03609,0.22599 0.33474,0.0171 0.67394,0.027 0.99724,0.0204 0.007,7e-5 0.0141,3.3e-4 0.0207,0 0.007,7e-5 0.0145,2e-4 0.0207,0 0.21694,-0.007 0.4348,-0.007 0.64409,-0.0204 0.62174,-0.048 1.19848,-0.15651 1.72442,-0.30816 h 0.0207 c 0.17372,-0.0506 0.33933,-0.11865 0.49862,-0.18484 0.15929,-0.0662 0.3124,-0.13062 0.45707,-0.20542 0.29305,-0.15297 0.54921,-0.32881 0.76874,-0.53409 0.22285,-0.20661 0.40135,-0.43983 0.5401,-0.69843 0.13882,-0.2586 0.23787,-0.54257 0.27012,-0.86276 l 0.56091,-5.64907 h 4.13442 l -0.58173,5.73123 c -0.01,0.0955 -0.0229,0.19583 -0.0207,0.28759 0.004,0.1836 0.0346,0.34438 0.0831,0.51358 0.0727,0.25367 0.18915,0.49584 0.35316,0.71894 0.10936,0.14876 0.24858,0.29541 0.39477,0.43141 0.10671,0.10012 0.22764,0.19484 0.35316,0.28753 0.0437,0.0335 0.0792,0.0716 0.12465,0.10274 h 0.0208 c 0.0121,0.009 0.0293,0.0125 0.0415,0.0204 0.0411,0.0276 0.082,0.0552 0.12472,0.0822 0.12718,0.0846 0.25163,0.1721 0.3947,0.24651 h 0.0208 c 0.0802,0.0414 0.16614,0.0854 0.24931,0.12318 0.0469,0.0217 0.0972,0.0408 0.1454,0.0618 0.0828,0.0355 0.16142,0.0675 0.24931,0.10268 h 0.0208 c 0.0782,0.0315 0.1686,0.0506 0.24931,0.0822 0.10085,0.0375 0.18575,0.0885 0.29079,0.12332 0.063,0.0217 0.12233,0.0414 0.18702,0.0618 h 0.0208 c 0.25522,0.0791 0.51311,0.15993 0.78941,0.22592 0.0919,0.0223 0.19685,0.0408 0.29093,0.0618 0.19093,0.044 0.38014,0.087 0.58172,0.12326 h 0.0207 c 0.0338,0.007 0.0697,0.0145 0.10385,0.0204 0.26879,0.0467 0.54994,0.087 0.83103,0.12319 0.0477,0.007 0.0975,0.0145 0.14546,0.0204 0.1922,0.023 0.3848,0.0434 0.58172,0.0618 0.0768,0.007 0.15112,0.0145 0.22857,0.0204 0.007,5.9e-4 0.0139,-6e-4 0.0207,0 0.24353,0.0197 0.49663,0.0283 0.74793,0.0408 0.0839,0.007 0.16554,0.0171 0.24931,0.0204 0.32783,0.0131 0.66217,0.0197 0.99724,0.0204 0.0209,6e-5 0.0414,0 0.0624,0 h 0.0207 c 0.34079,6e-5 0.67201,-0.007 1.01798,-0.0204 0.19725,-0.007 0.39996,-0.0283 0.60253,-0.0408 0.15351,-0.009 0.30708,-0.009 0.45707,-0.0204 0.007,-5.3e-4 0.0142,5.2e-4 0.0207,0 0.3479,-0.0263 0.69215,-0.0631 1.03886,-0.10275 h 0.0207 c 0.0426,-0.007 0.0821,-0.0138 0.12465,-0.0204 0.93774,-0.11082 1.85507,-0.26701 2.74241,-0.47249 0.0681,-0.0158 0.14008,-0.025 0.20776,-0.0408 h 0.0207 c 0.0842,-0.0204 0.16601,-0.0408 0.24931,-0.0618 0.24685,-0.0631 0.48798,-0.13495 0.72718,-0.20542 0.31021,-0.0912 0.61909,-0.18379 0.91414,-0.28759 0.009,0 0.0122,-0.0204 0.0207,-0.0204 0.18136,-0.0644 0.34784,-0.13798 0.51943,-0.20549 0.1089,-0.0427 0.22438,-0.0776 0.33241,-0.12318 h 0.0208 c 0.12891,-0.0546 0.24931,-0.12773 0.3739,-0.18491 0.14327,-0.0662 0.29804,-0.11609 0.43632,-0.18492 0.009,-0.007 0.0122,-0.0158 0.0208,-0.0204 0.10804,-0.0552 0.20909,-0.10708 0.3116,-0.16434 0.14401,-0.0797 0.28196,-0.16078 0.41552,-0.2465 h 0.0208 c 0.16375,-0.10143 0.30628,-0.22094 0.457,-0.32867 0.0611,-0.044 0.12738,-0.0797 0.18702,-0.12326 0.008,-0.007 0.0128,-0.0145 0.0208,-0.0204 0.20165,-0.15382 0.38746,-0.30606 0.56092,-0.47244 l 0.0208,-0.0204 c 0.17199,-0.16664 0.3366,-0.35516 0.47781,-0.53403 0.006,-0.008 0.0142,-0.0125 0.0208,-0.0204 0.13962,-0.17892 0.24692,-0.36357 0.35316,-0.5546 0.004,-0.008 0.0142,-0.0125 0.0207,-0.0204 0.10485,-0.19182 0.18064,-0.39171 0.24931,-0.59575 0.1097,-0.32519 0.17365,-0.65242 0.18702,-1.00653 0.005,-0.11805 0.009,-0.24762 0,-0.36975 l -0.2285,-3.22512 h 4.09279 l 0.18695,2.52669 c 0.0215,0.29429 0.0523,0.57044 0.10391,0.82168 0.0538,0.26195 0.12373,0.48058 0.20776,0.69843 0.1577,0.40886 0.3723,0.75916 0.62327,1.0271 0.10844,0.11727 0.20836,0.21705 0.33242,0.30816 0.0195,0.0145 0.0422,0.027 0.0623,0.0408 h 0.0208 c 0.11282,0.0765 0.22897,0.14731 0.35322,0.20549 0.0358,0.0184 0.0668,0.046 0.10385,0.0618 h 0.0207 c 0.0143,0.007 0.0274,0.0151 0.0416,0.0204 0.0839,0.0329 0.1817,0.0565 0.27005,0.0822 0.0624,0.0191 0.12,0.046 0.18695,0.0618 h 0.0208 c 0.36565,0.0824 0.76162,0.12115 1.18425,0.10275 0.0471,0 0.0975,-0.0177 0.1454,-0.0204 0.17551,-0.0112 0.35721,-0.0151 0.54017,-0.0408 0.0397,-0.007 0.0848,-0.0138 0.12465,-0.0204 0.41126,-0.0663 0.84852,-0.17913 1.2881,-0.30817 0.25064,-0.0735 0.49097,-0.13508 0.74793,-0.22599 0.24539,-0.0868 0.49809,-0.18623 0.74793,-0.28752 h 0.0207 c 0.0572,-0.023 0.1091,-0.0579 0.16621,-0.0822 0.31812,-0.13443 0.63597,-0.277 0.95575,-0.43141 0.12977,-0.0611 0.26493,-0.12135 0.39471,-0.18491 h 0.0208 c 0.12506,-0.0611 0.25051,-0.12161 0.3739,-0.18485 0.0632,-0.0322 0.12419,-0.0698 0.18702,-0.10268 0.32151,-0.16571 0.64016,-0.33932 0.95568,-0.51358 0.5052,-0.27897 0.99598,-0.55243 1.47512,-0.84225 0.008,-0.007 0.0128,-0.0158 0.0207,-0.0204 0.47854,-0.28969 0.93388,-0.57899 1.3712,-0.86276 0.0314,-0.0204 0.052,-0.0414 0.0831,-0.0618 0.52149,-0.33985 0.97796,-0.64328 1.41276,-0.945 0.2898,-0.20049 0.52614,-0.36048 0.76874,-0.53402 0.92397,-0.66096 1.49585,-1.10933 1.49585,-1.10933 0,0 -1.18704,-3.81269 -2.99171,-10.02451 -0.11016,-0.37901 -0.17591,-0.62943 -0.29093,-1.0271 -0.65944,-2.28098 -1.40657,-4.86545 -2.20216,-7.7034 -0.0824,-0.29402 -0.16568,-0.64551 -0.24931,-0.94493 -0.59542,-2.13005 -1.20068,-4.29363 -1.84908,-6.67597 -0.35841,-1.31705 -0.75112,-2.76452 -1.12189,-4.14948 -0.71536,-2.67249 -1.41442,-5.36884 -2.16069,-8.25754 -0.39869,-1.54304 -0.80177,-3.10962 -1.20499,-4.70407 -0.15171,-0.6001 -0.30496,-1.20103 -0.45707,-1.80769 -0.90237,-3.59948 -1.80573,-7.30834 -2.70085,-11.09266 -0.0884,-0.37391 -0.1819,-0.7545 -0.27012,-1.12984 l -0.0207,-0.14379 -1.41275,-7.80595 c 0.12412,-0.35701 0.24299,-0.72281 0.35315,-1.10926 0.0689,-0.24135 0.12379,-0.48666 0.18702,-0.73951 0.13742,-0.54671 0.264,-1.12498 0.37396,-1.72553 0.0275,-0.15081 0.0574,-0.2977 0.0831,-0.45192 0.0559,-0.33324 0.0982,-0.67779 0.14547,-1.0271 0.0452,-0.3357 0.0875,-0.67667 0.12459,-1.0271 0.0179,-0.16849 0.0257,-0.34165 0.0416,-0.51355 0.0649,-0.69921 0.1341,-1.42038 0.16621,-2.17744 0.012,-0.28124 0.0134,-0.57362 0.0207,-0.86277 0.0126,-0.40347 0.0174,-0.79302 0.0207,-1.21201 2.7e-4,-0.0534 1.4e-4,-0.1107 0,-0.16433 0.008,-1.47021 -0.0346,-3.04409 -0.14539,-4.70408 -0.16089,-2.40863 -0.44743,-4.60251 -0.83103,-6.61418 6.3163,-0.83344 12.46879,-2.16857 18.42828,-4.08788 0.85211,-0.27417 1.71119,-0.5647 2.55546,-0.86276 0.70531,-0.21302 1.38715,-0.43819 2.07757,-0.65735 0.74334,-0.23595 1.47605,-0.47593 2.20224,-0.719 1.80553,-0.60427 3.55435,-1.22167 5.2563,-1.86935 3.03493,-1.15423 5.90312,-2.36729 8.62212,-3.65647 1.80207,-0.855 3.54531,-1.7574 5.21469,-2.67045 4.56734,-2.49659 8.63408,-5.1982 12.27865,-8.11424 1.035,-0.82812 2.04666,-1.68635 3.01246,-2.5472 1.87141,-1.66794 3.61093,-3.38847 5.23549,-5.17658 1.0824,-1.19209 2.11654,-2.41231 3.09563,-3.65646 0.97909,-1.24409 1.90313,-2.52578 2.78395,-3.82081 0.43726,-0.64289 0.87411,-1.29621 1.2881,-1.95152 2.91759,-4.62046 5.26329,-9.54067 7.14687,-14.74945 0.53844,-1.48862 1.05135,-3.00544 1.51667,-4.53974 0.80277,-2.31799 1.50017,-4.71992 2.07757,-7.21039 0.57734,-2.49035 1.02044,-5.06641 1.3504,-7.7034 0.21999,-1.75787 0.3967,-3.54807 0.49861,-5.36142 0.63717,-1.16797 1.26444,-2.36755 1.89063,-3.59488 0.58618,-1.14916 1.1701,-2.33461 1.74517,-3.53321 0.55034,-1.14707 1.0816,-2.32246 1.62044,-3.51271 0.0575,-0.12691 0.12971,-0.24236 0.18702,-0.36976 0.39338,-0.87439 0.77691,-1.77403 1.16344,-2.67045 0.21308,-0.49414 0.43314,-0.97839 0.64402,-1.47902 0.43087,-1.02283 0.84626,-2.07333 1.26736,-3.12238 0.12392,-0.30876 0.2509,-0.61342 0.37396,-0.92435 0.5155,-1.30259 1.01751,-2.62464 1.5166,-3.96457 0.38899,-1.04412 0.76441,-2.09784 1.1427,-3.16346 0.26354,-0.74253 0.53139,-1.48652 0.78948,-2.23904 0.19805,-0.57742 0.38699,-1.16297 0.58172,-1.74603 0.30688,-0.91904 0.61583,-1.84043 0.91414,-2.7732 0.21121,-0.6603 0.41651,-1.32566 0.62327,-1.99254 0.24964,-0.80531 0.505,-1.60944 0.74793,-2.42395 0.32862,-1.10138 0.63982,-2.21038 0.95568,-3.3278 0.033,-0.11668 0.0711,-0.23235 0.10392,-0.34921 0.0362,-0.12891 0.0678,-0.26118 0.10384,-0.3903 0.33408,-1.19656 0.65778,-2.40193 0.9765,-3.61538 0.1559,-0.59385 0.32569,-1.18946 0.47781,-1.78719 0.25974,-1.02052 0.49968,-2.05012 0.74792,-3.08129 0.14779,-0.61373 0.29273,-1.23146 0.43633,-1.84878 0.29139,-1.25282 0.57813,-2.51302 0.85177,-3.77972 0.33062,-1.53068 0.6522,-3.07294 0.95569,-4.6219 0.0951,-0.48547 0.19852,-0.97136 0.29086,-1.45852 0.24705,-1.30305 0.47954,-2.60945 0.70638,-3.92354 0.28713,-1.66321 0.55699,-3.33365 0.81022,-5.01224 0.23216,-1.53844 0.46238,-3.07262 0.66482,-4.62191 0.31141,-2.38234 0.57295,-4.76692 0.81029,-7.16898 0.11887,-1.20214 0.23282,-2.40962 0.33241,-3.61538 0.0909,-1.1021 0.17499,-2.20289 0.24931,-3.30722 0.008,-0.12269 0.0127,-0.24705 0.0208,-0.36976 0.0778,-1.18703 0.14965,-2.3855 0.20782,-3.5743 0.0403,-0.82155 0.0731,-1.64303 0.10385,-2.46503 0.0245,-0.65647 0.044,-1.31541 0.0624,-1.97203 5.3e-4,-0.0205 -6e-4,-0.0412 0,-0.0616 0.0261,-0.95078 0.0494,-1.90465 0.0623,-2.85536 0.0161,-1.18111 0.0257,-2.35296 0.0208,-3.53322 -0.003,-0.80169 -0.008,-1.60247 -0.0208,-2.40337 -0.0123,-0.74142 -0.0415,-1.47797 -0.0623,-2.21854 -0.0114,-0.40452 -0.0276,-0.80774 -0.0416,-1.212 -0.0211,-0.61663 -0.035,-1.23292 -0.0623,-1.84878 -0.0356,-0.80327 -0.0786,-1.60175 -0.12465,-2.40338 -0.0316,-0.54949 -0.0673,-1.09473 -0.10385,-1.64335 -0.0247,-0.37044 -0.0561,-0.73925 -0.0831,-1.10927 -0.081,-1.10966 -0.1682,-2.22241 -0.27012,-3.3278 -0.0986,-1.06969 -0.21387,-2.13951 -0.33241,-3.20454 -0.0657,-0.59024 -0.11508,-1.17796 -0.18701,-1.76661 -0.0293,-0.24036 -0.0735,-0.47889 -0.10385,-0.719 -0.11634,-0.91903 -0.24213,-1.83793 -0.37396,-2.75262 -0.0907,-0.62916 -0.17199,-1.26289 -0.27012,-1.88986 -0.0398,-0.2543 -0.0836,-0.50614 -0.12459,-0.76002 -0.0757,-0.468 -0.14872,-0.93021 -0.22857,-1.39686 -0.12798,-0.74838 -0.25562,-1.49427 -0.39477,-2.23904 -0.11369,-0.60956 -0.24319,-1.2149 -0.3739,-1.80769 -0.11461,-0.51921 -0.24678,-1.034 -0.37403,-1.54068 -0.0762,-0.3037 -0.14779,-0.60458 -0.2285,-0.90384 -0.093,-0.34479 -0.192,-0.68811 -0.29086,-1.0271 -0.12326,-0.42305 -0.24186,-0.8389 -0.37396,-1.25303 -0.0436,-0.13637 -0.0802,-0.27541 -0.12466,-0.41084 -0.12638,-0.38516 -0.26088,-0.7522 -0.39477,-1.12984 -0.0564,-0.15928 -0.10844,-0.31451 -0.16621,-0.47246 -0.12406,-0.33927 -0.26467,-0.67332 -0.39471,-1.00653 -0.14818,-0.37969 -0.30136,-0.75778 -0.45706,-1.12984 -0.0453,-0.10821 -0.0787,-0.2211 -0.12466,-0.32867 -0.0921,-0.21573 -0.19632,-0.42362 -0.29086,-0.6368 -0.22424,-0.50554 -0.44769,-1.0081 -0.68557,-1.49953 -0.23554,-0.4866 -0.4788,-0.96465 -0.72718,-1.43794 -0.0979,-0.18651 -0.19107,-0.37014 -0.29086,-0.55463 -0.15564,-0.28772 -0.31759,-0.55935 -0.47781,-0.84219 -0.0852,-0.15023 -0.16295,-0.30303 -0.24931,-0.45192 -0.0652,-0.11228 -0.14194,-0.21715 -0.20783,-0.32867 -0.18615,-0.31524 -0.36911,-0.63566 -0.56091,-0.94493 -0.14945,-0.24089 -0.30436,-0.48162 -0.45707,-0.719 -0.11308,-0.17582 -0.21753,-0.36018 -0.33241,-0.53409 -0.22876,-0.34622 -0.47076,-0.68831 -0.70638,-1.0271 -0.0429,-0.0616 -0.0816,-0.12349 -0.12465,-0.18488 -0.25376,-0.36164 -0.50739,-0.71473 -0.76867,-1.06818 -0.0261,-0.0353 -0.0569,-0.0675 -0.0831,-0.10271 -0.28255,-0.3802 -0.56098,-0.75877 -0.85184,-1.12984 -0.006,-0.008 -0.0148,-0.0129 -0.0208,-0.0205 -0.30629,-0.39036 -0.61982,-0.79032 -0.93488,-1.17086 -0.29418,-0.35521 -0.59196,-0.70066 -0.89339,-1.04767 -0.0318,-0.0366 -0.0719,-0.0662 -0.10385,-0.10271 -0.28288,-0.32406 -0.56297,-0.64831 -0.85177,-0.96551 -0.0523,-0.0573 -0.11382,-0.1072 -0.16621,-0.16433 -0.27012,-0.29434 -0.53538,-0.59469 -0.81029,-0.88334 -0.0742,-0.0779 -0.15397,-0.14843 -0.22856,-0.22596 -0.0842,-0.0875 -0.16461,-0.18002 -0.24931,-0.26705 -0.26912,-0.27681 -0.53692,-0.54994 -0.81022,-0.82168 -0.0832,-0.0828 -0.16568,-0.16421 -0.24931,-0.2465 -0.55254,-0.54381 -1.11505,-1.07758 -1.68288,-1.60227 -0.0822,-0.0759 -0.1668,-0.15041 -0.24931,-0.22596 -0.0358,-0.0328 -0.0679,-0.07 -0.10384,-0.10271 -0.66675,-0.60849 -1.35172,-1.20202 -2.03603,-1.78719 -0.0408,-0.0349 -0.0838,-0.0679 -0.12465,-0.10271 -0.16042,-0.13664 -0.31653,-0.27538 -0.47788,-0.41083 -0.26746,-0.22472 -0.54057,-0.43578 -0.81022,-0.65735 -0.45527,-0.37393 -0.91035,-0.74372 -1.3712,-1.10926 -0.43094,-0.34185 -0.87378,-0.67148 -1.30891,-1.00653 -0.30722,-0.23652 -0.60512,-0.48557 -0.91413,-0.719 -0.72599,-0.54854 -1.44779,-1.08967 -2.18143,-1.62285 -0.0202,-0.0147 -0.0421,-0.0264 -0.0624,-0.0411 -0.7819,-0.56769 -1.56081,-1.13109 -2.34763,-1.68444 -0.76009,-0.53452 -1.50363,-1.05773 -2.26453,-1.5817 -1.50197,-1.034 -2.98061,-2.03066 -4.46682,-3.04021 -0.48453,-0.32925 -0.95256,-0.6578 -1.4335,-0.98601 -0.95914,-0.65416 -1.92753,-1.31758 -2.86712,-1.97203 -0.89452,-0.62353 -1.78898,-1.24014 -2.6593,-1.86935 -0.59482,-0.42974 -1.18485,-0.88025 -1.76591,-1.31469 -0.12346,-0.0924 -0.25117,-0.17439 -0.37396,-0.26704 -0.5068,-0.38204 -1.00143,-0.76324 -1.49586,-1.15035 -0.077,-0.0603 -0.15191,-0.12442 -0.2285,-0.18488 -0.65087,-0.51284 -1.28537,-1.01638 -1.91137,-1.54068 -0.03,-0.0251 -0.0533,-0.0571 -0.0831,-0.0822 -0.62161,-0.52258 -1.23451,-1.04517 -1.82827,-1.58169 -0.57194,-0.5168 -1.13951,-1.04965 -1.68287,-1.5817 -0.11521,-0.11285 -0.21853,-0.23561 -0.33241,-0.34922 -0.42801,-0.42702 -0.83861,-0.85579 -1.24655,-1.29417 -0.21872,-0.23503 -0.45221,-0.45988 -0.66482,-0.69843 -0.11382,-0.12761 -0.22039,-0.26164 -0.33241,-0.3903 -0.43886,-0.50422 -0.85723,-1.01934 -1.26736,-1.54068 -0.34265,-0.4354 -0.67586,-0.86631 -0.99724,-1.31468 -0.0748,-0.10433 -0.1549,-0.20306 -0.2285,-0.30813 -0.0142,-0.0202 -0.0275,-0.0414 -0.0416,-0.0616 -0.3493,-0.5011 -0.67606,-1.02204 -0.99724,-1.54068 -0.013,-0.021 -0.0286,-0.0406 -0.0416,-0.0616 l -2.20223,-8.70979 c 0.0723,-0.26901 0.16129,-0.53179 0.22857,-0.80116 0.0478,-0.19261 0.099,-0.38267 0.14539,-0.57518 0.0478,-0.19812 0.0805,-0.39704 0.12466,-0.59572 0.0112,-0.0483 0.0309,-0.0951 0.0415,-0.14379 0.14673,-0.67128 0.28095,-1.34611 0.41551,-2.01311 0.10751,-0.53355 0.217,-1.06996 0.31161,-1.60227 0.0901,-0.50482 0.17112,-1.01659 0.24931,-1.52011 0.014,-0.0883 0.027,-0.17882 0.0416,-0.26705 0.16248,-1.07363 0.30595,-2.13807 0.41551,-3.20454 0.16388,-1.59715 0.26932,-3.17076 0.3116,-4.74523 0.014,-0.52555 0.0208,-1.05884 0.0208,-1.58169 -6e-5,-5.5677 -0.46624,-11.48312 -1.47511,-17.48137 -0.28827,-1.7137 -0.61789,-3.43699 -0.99724,-5.15607 -0.56902,-2.57856 -1.25113,-5.17039 -2.03602,-7.72378 -0.52329,-1.70225 -1.10036,-3.3788 -1.72436,-5.05332 -0.62407,-1.67451 -1.28657,-3.33765 -2.01529,-4.97115 6.1745,1.18893 11.26081,2.0747 11.26081,2.0747 l -17.22296,-13.00289 c -0.45081,-0.67706 -0.91726,-1.35314 -1.39201,-2.01311 l 16.66185,3.34837 -20.52647,-15.48831 16.5794,3.3278 -19.57112,-14.76983 18.03338,-4.97116 c -0.0134,-0.005 -0.72353,-0.25365 -1.91137,-0.6368 -0.60014,-0.19357 -1.32619,-0.42719 -2.16068,-0.67785 -0.007,-0.002 -0.0136,0.002 -0.0208,0 -0.013,-0.004 -0.0284,-0.0166 -0.0415,-0.0205 -0.26593,-0.0797 -0.60705,-0.1629 -0.89339,-0.2465 -0.60333,-0.18116 -1.18445,-0.36705 -1.86982,-0.55464 -0.007,-10e-4 -0.0148,0.002 -0.0208,0 -1.03865,-0.28455 -2.15755,-0.57458 -3.34486,-0.86276 -0.007,-0.001 -0.0143,10e-4 -0.0208,0 -0.58305,-0.14139 -1.17614,-0.27352 -1.78678,-0.41084 -0.007,-10e-4 -0.0143,10e-4 -0.0207,0 -1.85294,-0.41632 -3.83086,-0.81116 -5.83797,-1.12984 -1.33815,-0.21242 -2.67917,-0.39845 -4.03056,-0.53409 l 29.04487,-7.99066 c 0,0 -0.54861,-0.19995 -1.49585,-0.51354 -0.007,-0.002 -0.0162,0.002 -0.0208,0 -0.005,-0.002 -0.0156,0.002 -0.0208,0 -0.48114,-0.15929 -1.06871,-0.36219 -1.74517,-0.57518 -0.005,-0.002 -0.0151,0.002 -0.0207,0 -0.55633,-0.17507 -1.21909,-0.3738 -1.89063,-0.57517 -0.13503,-0.0405 -0.23369,-0.0817 -0.3739,-0.12326 -0.007,-0.002 -0.0138,0.002 -0.0208,0 -0.0134,-0.004 -0.0281,-0.0166 -0.0415,-0.0205 -0.84459,-0.2502 -1.77754,-0.50889 -2.76314,-0.78059 -1.82255,-0.50239 -3.86649,-1.0202 -6.04579,-1.5201 -1.43143,-0.32834 -2.8981,-0.65294 -4.42521,-0.94493 l 24.22423,-13.57807 c -0.0358,-0.004 -2.62951,-0.26512 -6.73135,-0.47247 -0.0128,-6.4e-4 -0.0287,6.5e-4 -0.0415,0 -2.47674,-0.12461 -5.49032,-0.23312 -8.85081,-0.2465 -0.007,-3e-5 -0.0136,2e-5 -0.0207,0 -0.1829,-6.6e-4 -0.37616,1.7e-4 -0.56098,0 -0.75757,0.002 -1.52053,0.0112 -2.30608,0.0205 -0.007,8e-5 -0.0135,-9e-5 -0.0208,0 -0.0746,6.5e-4 -0.15364,-6.6e-4 -0.2285,0 -1.80214,0.0242 -3.68074,0.0732 -5.58872,0.16433 -0.0964,0.005 -0.1942,0.0158 -0.2908,0.0205 -0.48951,0.0243 -0.98128,0.0527 -1.47511,0.0822 -0.56171,0.0319 -1.1193,0.0623 -1.6828,0.10271 -0.007,4.9e-4 -0.0142,-5e-4 -0.0208,0 -0.89173,0.0641 -1.78426,0.14293 -2.68011,0.22596 -0.16661,0.0154 -0.33155,0.0249 -0.49862,0.0411 -0.007,6.6e-4 -0.0141,-6.5e-4 -0.0207,0 -0.86461,0.084 -1.73187,0.18531 -2.59694,0.28759 -0.20051,0.0237 -0.40255,0.0365 -0.60253,0.0616 -0.007,6.6e-4 -0.0142,-6.5e-4 -0.0208,0 -0.68491,0.0862 -1.35957,0.18734 -2.03596,0.28759 -0.19393,0.0285 -0.38833,0.0525 -0.58173,0.0822 -0.17976,0.0277 -0.3602,0.0536 -0.54023,0.0822 -0.007,0.001 -0.0141,-10e-4 -0.0207,0 -0.78536,0.12494 -1.56946,0.28075 -2.34763,0.43138 -0.26301,0.0509 -0.52954,0.0924 -0.78955,0.14379 -0.007,10e-4 -0.0141,-10e-4 -0.0207,0 -0.51119,0.10108 -1.01253,0.19759 -1.5166,0.30813 -0.007,10e-4 -0.0142,-0.001 -0.0208,0 -0.50394,0.11067 -1.0001,0.22873 -1.49586,0.34921 -0.007,0.001 -0.0142,-10e-4 -0.0208,0 -0.20283,0.0494 -0.40075,0.11066 -0.60246,0.16434 -0.29113,0.0775 -0.58538,0.14869 -0.87258,0.22596 -0.006,0.002 -0.0142,-0.002 -0.0208,0 -0.18396,0.0496 -0.35914,0.11285 -0.54011,0.16434 -0.29704,0.0845 -0.59801,0.15859 -0.89339,0.2465 -0.006,0.002 -0.0142,-0.002 -0.0207,0 -0.16189,0.0483 -0.31666,0.1132 -0.47788,0.16434 -0.31213,0.099 -0.62932,0.187 -0.93487,0.28758 -0.006,0.002 -0.0142,-0.002 -0.0208,0 -0.14041,0.0463 -0.27617,0.0968 -0.41552,0.1438 -0.32031,0.10804 -0.64195,0.21443 -0.95568,0.32867 -0.006,0.002 -0.0142,-0.002 -0.0207,0 -0.1204,0.0439 -0.23375,0.0987 -0.35322,0.14379 -0.32709,0.12357 -0.65718,0.24104 -0.97643,0.36976 -0.006,0.003 -0.0142,-0.003 -0.0208,0 -0.43552,0.17587 -0.84705,0.36675 -1.26735,0.55463 -0.005,0.003 -0.0141,-0.003 -0.0208,0 -0.093,0.0416 -0.17704,0.10057 -0.27005,0.14379 -0.32722,0.15205 -0.66223,0.29584 -0.97649,0.45193 -0.005,0.003 -0.0142,-0.003 -0.0207,0 -0.0735,0.0365 -0.13603,0.0854 -0.20783,0.12325 -0.32237,0.16984 -0.64029,0.33906 -0.95562,0.51355 -0.005,0.003 -0.0142,-0.003 -0.0208,0 -0.057,0.0316 -0.10943,0.0708 -0.1662,0.10271 -0.71529,0.40273 -1.41096,0.82529 -2.05677,1.2736 -0.005,0.003 -0.0142,-0.003 -0.0208,0 -0.0242,0.0168 -0.0383,0.0448 -0.0623,0.0616 -0.31931,0.22425 -0.63291,0.44132 -0.93494,0.67785 -0.004,0.003 -0.0142,-0.003 -0.0208,0 -0.32457,0.25472 -0.63265,0.5322 -0.93488,0.80117 -0.004,0.003 -0.0142,-0.003 -0.0207,0 -0.004,0.003 0.004,0.0173 0,0.0205 -0.29771,0.26644 -0.5768,0.54129 -0.85184,0.82168 -0.28561,0.29068 -0.57148,0.57691 -0.83103,0.88334 -0.27052,0.31936 -0.53026,0.6524 -0.78948,0.98601 -0.009,0.012 -0.0115,0.0291 -0.0207,0.0411 -0.26799,0.34578 -0.53359,0.68738 -0.78955,1.04767 -0.25536,0.36024 -0.50447,0.7353 -0.74793,1.10926 -0.24326,0.37388 -0.47561,0.76357 -0.70631,1.15035 -1.08519,1.81677 -2.04008,3.76033 -2.84631,5.81341 -0.0406,0.10318 -0.0848,0.20446 -0.12466,0.30813 -0.0155,0.0404 -0.0281,0.082 -0.0416,0.12325 -0.10684,0.28074 -0.21002,0.55807 -0.3116,0.84219 -0.0586,0.16397 -0.1097,0.32795 -0.16621,0.49301 -0.3106,0.90167 -0.59415,1.82228 -0.85184,2.75262 -0.25695,0.92771 -0.48206,1.86435 -0.68563,2.81421 -0.10245,0.47818 -0.20204,0.95532 -0.2908,1.43794 -0.0881,0.47892 -0.17478,0.95545 -0.24931,1.43794 -0.16786,1.08645 -0.29757,2.18639 -0.39477,3.28671 -0.49755,-0.11233 -1.03779,-0.208 -1.66206,-0.26704 -2.26267,-0.43776 -4.55498,-0.87769 -6.85568,-1.29418 -0.007,-10e-4 -0.0141,0.001 -0.0208,0 -0.33779,-0.0611 -0.67918,-0.1243 -1.01798,-0.18488 -3.13106,-0.5599 -6.27987,-1.08428 -9.47375,-1.58169 -5.89241,-0.91779 -11.88375,-1.71021 -17.95028,-2.3007 -0.007,-6.6e-4 -0.014,6.5e-4 -0.0207,0 -0.13822,-0.0134 -0.27723,-0.0278 -0.41552,-0.0411 -1.0711,-0.10255 -2.14552,-0.19817 -3.22028,-0.28759 -0.007,-5.7e-4 -0.0141,5.8e-4 -0.0207,0 -0.53099,-0.0441 -1.06618,-0.08 -1.59977,-0.12325 -0.0694,-0.006 -0.13835,-0.015 -0.20776,-0.0205 -0.0344,-0.003 -0.0695,0.003 -0.10384,0 -0.58259,-0.0465 -1.16331,-0.10408 -1.74517,-0.14379 -0.007,-4.7e-4 -0.0142,4.7e-4 -0.0208,0 -1.21895,-0.0831 -2.43272,-0.14123 -3.65653,-0.20542 -0.007,-3.6e-4 -0.0139,3.6e-4 -0.0208,0 -1.21969,-0.0639 -2.45314,-0.12037 -3.67728,-0.16434 -0.007,-2.5e-4 -0.0139,2.5e-4 -0.0207,0 -0.61436,-0.022 -1.23205,-0.0442 -1.84907,-0.0616 -0.60967,-0.0166 -1.2177,-0.0298 -1.82827,-0.0411 -0.007,-1.3e-4 -0.0138,1.2e-4 -0.0207,0 -0.007,-1.3e-4 -0.0138,1.2e-4 -0.0208,0 -1.23511,-0.0226 -2.45965,-0.0411 -3.69809,-0.0411 h -0.0207 c -1.23617,0 -2.46524,0.0185 -3.69809,0.0411 -0.007,1.2e-4 -0.0139,-1.3e-4 -0.0207,0 -1.23744,0.0227 -2.48532,0.0585 -3.7189,0.10271 -1.23106,0.0441 -2.45074,0.10008 -3.67728,0.16433 -0.007,3.6e-4 -0.0138,-3.6e-4 -0.0207,0 -1.22381,0.0642 -2.43758,0.12235 -3.65654,0.20542 -0.007,4.7e-4 -0.0142,-4.7e-4 -0.0207,0 -0.58189,0.0397 -1.16265,0.0973 -1.74517,0.1438 -0.0344,0.003 -0.0694,-0.003 -0.10388,0 -0.0765,0.006 -0.15206,0.0147 -0.22853,0.0205 -0.52667,0.0427 -1.05488,0.0797 -1.57896,0.12325 -0.007,5.7e-4 -0.0142,-5.7e-4 -0.0207,0 -1.07476,0.0894 -2.14918,0.18503 -3.22028,0.28758 -0.14508,0.0139 -0.29131,0.027 -0.43629,0.0411 -6.06673,0.5905 -12.05793,1.38292 -17.95028,2.3007 -3.19388,0.49745 -6.3427,1.02184 -9.47376,1.5817 -0.34452,0.0616 -0.69507,0.12266 -1.03878,0.18487 -2.30103,0.41646 -4.59335,0.85639 -6.85568,1.29418 -0.62426,0.059 -1.16457,0.15471 -1.66206,0.26705 -0.0972,-1.10073 -0.22683,-2.19987 -0.39474,-3.28672 -0.0743,-0.48249 -0.16109,-0.959 -0.24931,-1.43794 -0.0887,-0.4826 -0.18861,-0.95978 -0.29086,-1.43793 -0.20353,-0.94993 -0.42864,-1.88651 -0.68557,-2.81422 -0.25768,-0.93033 -0.54117,-1.85094 -0.85177,-2.75262 -0.0568,-0.16505 -0.10716,-0.33025 -0.16621,-0.49301 -0.0722,-0.20186 -0.15401,-0.39707 -0.22853,-0.59571 -0.0304,-0.0812 -0.0563,-0.16401 -0.0831,-0.24651 -0.0153,-0.0404 -0.0261,-0.0827 -0.0416,-0.12325 -0.0398,-0.10367 -0.0841,-0.20495 -0.12465,-0.30813 -0.60468,-1.53976 -1.29269,-3.00721 -2.05684,-4.41655 -0.25472,-0.46977 -0.51818,-0.9427 -0.78948,-1.39686 -0.23076,-0.3868 -0.46312,-0.77645 -0.70638,-1.15035 -0.24345,-0.37394 -0.4925,-0.74904 -0.74792,-1.10926 -0.25589,-0.36028 -0.52149,-0.70185 -0.78948,-1.04767 -0.009,-0.012 -0.0114,-0.0291 -0.0207,-0.0411 -0.25921,-0.33361 -0.51896,-0.66667 -0.78948,-0.98601 -0.25954,-0.3064 -0.54542,-0.59263 -0.83103,-0.88334 -0.27323,-0.27809 -0.55587,-0.5576 -0.85177,-0.82168 -0.004,-0.003 0.004,-0.0173 0,-0.0205 -0.004,-0.003 -0.0169,0.003 -0.0207,0 -0.30222,-0.26894 -0.61025,-0.54642 -0.93488,-0.80117 -0.005,-0.003 -0.0165,0.003 -0.0207,0 -0.30202,-0.23657 -0.6156,-0.45363 -0.93488,-0.67785 -0.0241,-0.0169 -0.0381,-0.0448 -0.0623,-0.0616 -0.005,-0.003 -0.0163,0.003 -0.0207,0 -0.3081,-0.21385 -0.62927,-0.41172 -0.95568,-0.61626 -0.0416,-0.0261 -0.0828,-0.0563 -0.12466,-0.0822 -0.31695,-0.19604 -0.6472,-0.38979 -0.97649,-0.57517 -0.0568,-0.0319 -0.10915,-0.0711 -0.16621,-0.10271 -0.005,-0.003 -0.0156,0.003 -0.0207,0 -0.38561,-0.21334 -0.76016,-0.43621 -1.16344,-0.6368 -0.005,-0.003 -0.0154,0.003 -0.0208,0 -0.4036,-0.20046 -0.82644,-0.40764 -1.24654,-0.59572 -0.006,-0.003 -0.015,0.003 -0.0208,0 -0.42025,-0.18788 -0.83176,-0.37876 -1.26729,-0.55463 -0.006,-0.003 -0.0148,0.003 -0.0207,0 -0.31925,-0.12872 -0.64937,-0.24619 -0.97649,-0.36976 -0.11947,-0.0452 -0.23281,-0.0999 -0.35319,-0.14379 -0.006,-0.002 -0.0148,0.002 -0.0207,0 -0.31372,-0.11424 -0.63534,-0.22063 -0.95569,-0.32867 -0.13937,-0.047 -0.2751,-0.0975 -0.41552,-0.1438 -0.006,-0.002 -0.0146,0.002 -0.0207,0 -0.30557,-0.10058 -0.6228,-0.18859 -0.93488,-0.28758 -0.16124,-0.0511 -0.31596,-0.1161 -0.47784,-0.16434 -0.007,-0.002 -0.0144,0.002 -0.0207,0 -0.47534,-0.14147 -0.94758,-0.27992 -1.4335,-0.41084 -0.007,-0.002 -0.0144,0.002 -0.0207,0 -0.29359,-0.079 -0.59565,-0.14689 -0.89339,-0.22596 -0.19531,-0.0519 -0.38538,-0.11655 -0.58172,-0.16434 -0.007,-0.001 -0.0142,10e-4 -0.0208,0 -0.49573,-0.12048 -0.99185,-0.23854 -1.49585,-0.34921 -0.007,-10e-4 -0.0142,0.001 -0.0207,0 -0.50409,-0.11054 -1.00549,-0.20705 -1.5166,-0.30813 -0.007,-10e-4 -0.0142,0.001 -0.0207,0 -0.25997,-0.0513 -0.52652,-0.0929 -0.78948,-0.14379 -0.77817,-0.15063 -1.56227,-0.30644 -2.34763,-0.43138 -0.007,-0.001 -0.0142,10e-4 -0.0207,0 -0.17998,-0.0286 -0.36044,-0.0545 -0.54017,-0.0822 -0.0483,-0.007 -0.0971,-0.0131 -0.14543,-0.0205 -0.14492,-0.022 -0.2911,-0.0403 -0.43629,-0.0616 -0.67639,-0.10025 -1.35106,-0.20135 -2.03603,-0.28759 -0.007,-6.6e-4 -0.014,6.6e-4 -0.0207,0 -0.19998,-0.0251 -0.40199,-0.0379 -0.6025,-0.0616 -0.86507,-0.10229 -1.7324,-0.20363 -2.59694,-0.28759 -0.007,-6.6e-4 -0.0139,6.6e-4 -0.0207,0 -0.16702,-0.0162 -0.33199,-0.0256 -0.49862,-0.0411 -0.89578,-0.083 -1.78838,-0.16186 -2.68004,-0.22597 -0.007,-5e-4 -0.0138,5e-4 -0.0207,0 -0.13213,-0.009 -0.26258,-0.0116 -0.39474,-0.0205 -0.54233,-0.0375 -1.08234,-0.0718 -1.62051,-0.10271 -0.38045,-0.0208 -0.76628,-0.0429 -1.14271,-0.0616 -0.007,-3.4e-4 -0.014,3.4e-4 -0.0207,0 -0.0985,-0.005 -0.19268,-0.0158 -0.29086,-0.0205 -1.90791,-0.0911 -3.76577,-0.14017 -5.56791,-0.16433 -0.0819,-0.001 -0.16769,6.5e-4 -0.24931,0 -0.0283,-3.4e-4 -0.0549,3.4e-4 -0.0831,0 -0.75956,-0.009 -1.49054,-0.0212 -2.22304,-0.0205 -0.1911,-4.3e-4 -0.39291,-6.6e-4 -0.58173,0 z"
         style="opacity:1;fill:#05ff77;stroke-width:0.66107327"
         inkscape:connector-curvature="0" />
      <path
         id="path3043"
         style="opacity:1;fill:#ff6600;stroke-width:0.66107327"
         inkscape:connector-curvature="0"
         d="m 237.21238,453.69852 c -24.00218,0 -43.46294,19.2207 -43.46294,42.9534 0,23.73205 19.46076,42.97378 43.46294,42.97378 24.00217,0 43.46293,-19.24173 43.46293,-42.97378 0,-23.73204 -19.46076,-42.9534 -43.46293,-42.9534 z m 119.6685,0 c -24.00218,0 -43.46293,19.2207 -43.46293,42.9534 0,23.73205 19.46075,42.97378 43.46293,42.97378 24.00218,0 43.46294,-19.24173 43.46294,-42.97378 0,-23.73204 -19.46076,-42.9534 -43.46294,-42.9534 z" />
      <path
         id="rect3933"
         style="opacity:1;fill:#000080;stroke-width:0.66107327"
         inkscape:connector-curvature="0"
         d="m 184.27901,382.98817 c -8.99907,0.0358 -15.644,0.71901 -15.644,0.71901 l 24.2455,13.57807 c -10.25027,1.95999 -18.88502,5.05332 -18.88502,5.05332 l 29.06549,7.99066 c -10.83665,1.08777 -21.98045,5.07389 -21.98045,5.07389 l 18.05399,4.95058 -19.59173,14.79021 16.57941,-3.3278 -20.52647,15.48831 16.66184,-3.34837 c -0.47472,0.65997 -0.94159,1.33611 -1.39201,2.01311 l -17.22296,13.0029 c 0,0 5.08598,-0.88584 11.26081,-2.07471 -5.82985,13.06797 -8.24782,27.65967 -8.24782,40.38582 0,46.06986 53.9572,102.89385 120.51948,102.89385 66.56228,0 120.53943,-56.82465 120.53943,-102.89385 0,-12.72615 -2.41817,-27.31719 -8.24782,-40.38582 6.1745,1.18894 11.26081,2.07471 11.26081,2.07471 l -17.22296,-13.0029 c -0.45039,-0.67706 -0.91726,-1.35314 -1.39201,-2.01311 l 16.66184,3.34837 -20.52647,-15.48831 16.57941,3.3278 -19.57112,-14.76983 18.05399,-4.97116 c 0,0 -11.1438,-3.98606 -21.98045,-5.07389 l 29.0728,-7.99329 c 0,0 -8.63475,-3.09332 -18.88502,-5.05332 l 24.24617,-13.57413 c 0,0 -6.64479,-0.68311 -15.644,-0.719 -14.99912,-0.0597 -36.5461,1.67307 -44.7507,11.35954 -10.55942,12.46716 -12.57184,36.06839 -3.42797,49.95804 27.14214,2.45156 48.40724,25.00795 48.40724,52.48487 0,29.11502 -23.86456,52.71099 -53.31099,52.71099 -11.26945,0 -21.70321,-3.46787 -30.31203,-9.36713 -0.38284,7.8914 -3.87062,16.71885 -6.83507,23.62358 -4.42441,10.3045 -22.68715,24.97902 -22.68715,24.97902 0,0 -18.28336,-14.67452 -22.70777,-24.97902 -2.96465,-6.90473 -6.43171,-15.73218 -6.81445,-23.62358 -8.61414,5.90511 -19.05721,9.36713 -30.33265,9.36713 -29.44643,0 -53.28971,-23.59597 -53.28971,-52.71099 0,-27.49138 21.24648,-50.07373 48.40724,-52.50524 9.1327,-13.89163 7.12825,-37.47445 -3.42797,-49.93767 -8.20461,-9.6866 -29.75225,-11.41936 -44.7507,-11.35954 z m 112.89394,28.24536 c -19.88957,0 -39.31842,2.97941 -57.46615,6.49126 1.16936,9.1088 -0.42748,18.65276 -4.11361,26.39625 0.57425,-0.0181 1.16644,-0.0411 1.74517,-0.0411 29.44643,0 53.3316,23.59597 53.3316,52.71099 0,7.94662 -1.81943,15.47056 -5.00693,22.22607 3.66837,-0.98023 7.60227,-1.45851 11.53072,-1.45851 3.92081,0 7.83098,0.48162 11.48885,1.45851 -3.18511,-6.75617 -4.96545,-14.28011 -4.96545,-22.22607 0,-29.11502 23.86456,-52.71099 53.31099,-52.71099 0.58568,0 1.16404,0.0225 1.74517,0.0411 -3.68613,-7.74415 -5.28297,-17.28745 -4.11361,-26.39625 -18.15438,-3.51231 -37.59652,-6.49126 -57.48675,-6.49126 z m -59.83426,39.09151 c -25.96474,0 -46.99515,20.79372 -46.99515,46.46624 0,25.67252 21.03041,46.48662 46.99515,46.48662 25.96474,0 47.03637,-20.8141 47.03637,-46.48662 0,-25.67252 -21.07163,-46.46624 -47.03637,-46.46624 z m 119.68845,0 c -25.96474,0 -47.01576,20.79372 -47.01576,46.46624 0,25.67252 21.05102,46.48662 47.01576,46.48662 25.96474,0 47.01576,-20.8141 47.01576,-46.48662 0,-25.67252 -21.05102,-46.46624 -47.01576,-46.46624 z m -119.6685,6.14208 c 22.60737,0 40.92796,18.11505 40.92796,40.46733 0,22.35294 -18.32125,40.46733 -40.92796,40.46733 -22.60738,0 -40.94924,-18.11505 -40.94924,-40.46733 0,-22.35294 18.34186,-40.46733 40.94924,-40.46733 z m 119.6685,0 c 22.60738,0 40.92796,18.11505 40.92796,40.46733 0,22.35294 -18.32125,40.46733 -40.92796,40.46733 -22.60737,0 -40.94923,-18.11505 -40.94923,-40.46733 0,-22.35294 18.34186,-40.46733 40.94923,-40.46733 z m -119.6685,22.4522 c -10.06878,0 -18.24147,8.05967 -18.24147,18.01513 0,9.95545 8.17269,18.03617 18.24147,18.03617 10.06877,0 18.22019,-8.08072 18.22019,-18.03617 0,-9.95546 -8.15142,-18.01513 -18.22019,-18.01513 z m 119.6685,0 c -10.06877,0 -18.24147,8.05967 -18.24147,18.01513 0,9.95545 8.1727,18.03617 18.24147,18.03617 10.06878,0 18.2202,-8.08072 18.2202,-18.03617 0,-9.95546 -8.15142,-18.01513 -18.2202,-18.01513 z m -59.83425,43.898 c -8.3522,0 -16.71703,2.59335 -21.62742,7.80594 -7.2692,7.71589 -1.90313,21.8665 2.26452,31.57283 3.77063,8.78144 19.36303,21.28146 19.36303,21.28146 0,0 15.57154,-12.50002 19.34242,-21.28146 4.16772,-9.70633 9.53359,-23.85694 2.26453,-31.57283 -4.91086,-5.21259 -13.25462,-7.80594 -21.60681,-7.80594 z m -120.35327,0.10271 c -13.21008,21.65681 -51.53325,27.48941 -58.40089,64.296 -13.1436,70.44084 23.09868,157.55189 48.13732,162.11384 2.14412,0.39111 4.75084,0.009 7.7492,-1.00652 -10.02091,-13.1646 -12.49007,-52.95289 -6.3782,-102.21678 -4.60657,51.50082 2.23807,90.50951 18.34518,93.44783 1.72549,0.31475 3.88923,-0.14097 6.35739,-1.25303 -6.16798,-10.24731 -7.77247,-37.80772 -4.67452,-73.78671 0.58296,33.55603 7.47197,56.63993 19.71605,58.87292 1.72549,0.31475 3.86842,-0.14098 6.33658,-1.25302 -6.76592,-11.24056 -8.0138,-43.31691 -3.61498,-84.48826 -0.0199,36.167 6.91152,61.382 19.73732,63.72149 1.72549,0.31475 3.84768,-0.14098 6.31584,-1.25303 -6.29257,-10.45438 -7.80039,-38.93506 -4.44602,-75.98224 0.99957,31.60569 7.80904,53.12512 19.61234,55.27858 1.72549,0.31474 3.90997,-0.12044 6.3782,-1.23252 -4.9108,-8.15828 -6.92947,-27.30273 -5.98343,-52.91609 3.14848,16.62026 8.87941,27.1831 16.95304,28.6562 1.72549,0.31476 3.86842,-0.16152 6.33658,-1.2736 -4.85754,-8.0702 -6.86232,-26.8794 -5.98342,-52.07403 -44.35314,-10.26112 -79.77901,-43.64558 -92.49046,-77.64531 z m 240.6866,0 c -12.71411,34.00302 -48.14064,67.39077 -92.49046,77.64531 0.8791,25.19463 -1.12588,44.00383 -5.98342,52.07403 2.46816,1.11209 4.61109,1.58834 6.33658,1.2736 8.07363,-1.47264 13.80442,-12.03594 16.95304,-28.65619 0.94631,25.61335 -1.07263,44.7578 -5.98343,52.91608 2.46816,1.11209 4.65265,1.54725 6.3782,1.23252 11.8033,-2.15306 18.61244,-23.67288 19.61234,-55.27858 3.35417,37.04981 1.84655,65.53049 -4.44602,75.98224 2.46816,1.11209 4.59035,1.56783 6.31584,1.25303 12.82514,-2.33948 19.7566,-27.55449 19.73732,-63.72148 4.39902,41.172 3.15114,73.24769 -3.61498,84.48825 2.46816,1.11209 4.61109,1.56783 6.33658,1.25302 12.24408,-2.23352 19.133,-25.31755 19.71605,-58.87292 3.09802,35.97899 1.49346,63.5394 -4.67452,73.78671 2.46816,1.1121 4.6319,1.56783 6.35739,1.25303 16.10672,-2.93806 22.95175,-41.94438 18.34518,-93.44783 6.112,49.26389 3.64304,89.05021 -6.3782,102.21678 2.99856,1.01533 5.60528,1.39764 7.7492,1.00652 25.03864,-4.56734 61.28092,-91.673 48.13733,-162.11384 -6.86765,-36.80659 -45.19082,-42.63985 -58.40089,-64.296 z m -130.30571,6.16258 c 1.20527,0 2.18143,1.69424 2.18143,3.77972 0,2.08549 -0.97616,3.75922 -2.18143,3.75922 -1.20526,0 -2.18142,-1.67366 -2.18142,-3.75922 0,-2.08548 0.97616,-3.77972 2.18142,-3.77972 z m 19.94476,0 c 1.20526,0 2.18142,1.69424 2.18142,3.77972 0,2.08549 -0.97616,3.75922 -2.18142,3.75922 -1.20527,0 -2.18143,-1.67366 -2.18143,-3.75922 0,-2.08548 0.97616,-3.77972 2.18143,-3.77972 z M 164.81293,689.22443 c -0.94239,31.12518 7.66144,54.73561 14.83358,64.37883 -14.80898,4.6484 -32.15892,-10.48462 -37.3758,-20.87063 6.75861,33.36803 26.10834,57.69694 79.92526,68.40308 2.2644,-11.79996 8.49514,-17.60101 13.56642,-17.72788 0.0918,-0.003 0.49967,0.4597 0.29086,0.0205 5.056,-0.20227 8.85813,3.1657 10.7828,9.38751 1.9722,-5.71822 5.04449,-9.41315 9.28694,-9.49071 3.26629,-0.0596 6.59433,4.12988 8.91265,10.53786 1.62882,-6.65494 4.98206,-10.23943 8.74643,-10.47673 5.8728,-0.36923 13.20742,7.52 14.29374,23.17133 0.0138,0.19832 0.009,0.3794 0.0207,0.57517 2.97543,0.0431 6.00524,0.0616 9.10013,0.0616 3.08738,0 6.11021,-0.0188 9.07885,-0.0616 0.012,-0.19577 0.007,-0.37685 0.0207,-0.57517 1.08619,-15.65133 8.42068,-23.54076 14.29374,-23.17133 3.76451,0.23668 7.11762,3.82146 8.74644,10.47673 2.31844,-6.40811 5.64649,-10.59768 8.91264,-10.53786 4.24232,0.0774 7.31441,3.77216 9.28694,9.49071 1.92441,-6.22201 5.72667,-9.58997 10.7828,-9.38751 -0.20881,0.43913 0.19904,-0.0229 0.29086,-0.0205 5.07115,0.12699 11.30203,5.92752 13.56642,17.72788 53.81559,-10.70746 73.17064,-35.03505 79.92527,-68.40308 -6.86299,12.10036 -23.15852,25.70275 -37.3758,20.87063 7.1728,-9.64322 15.7763,-33.25365 14.83357,-64.37883 h -1.2258 c -0.0416,0.62961 -0.0782,1.26959 -0.12465,1.88986 -10e-4,0.0413 -0.0193,0.082 -0.0208,0.12325 -1.6239,45.2002 -9.96838,77.77021 -80.19119,87.46602 l 8.42998,-6.65888 -24.45227,7.52 13.68875,-12.69986 -24.63841,7.57916 12.33915,-11.43776 -36.19308,11.12881 -36.19307,-11.12881 12.34048,11.4417 -24.66102,-7.57982 13.69141,12.69461 -24.45293,-7.51869 8.4353,6.67597 c -70.19223,-9.70895 -78.54243,-42.28028 -80.17125,-87.47259 -0.003,-0.042 -0.0176,-0.0812 -0.0207,-0.12325 -0.0465,-0.6203 -0.0831,-1.26025 -0.12466,-1.88986 h -1.2258 z m 53.45592,10.8054 c -0.25077,1.25184 -0.37396,2.53721 -0.37396,3.86189 0,10.87179 8.85148,19.71108 19.81976,19.82282 -3.07016,7.04672 -10.15454,11.97613 -18.40767,11.97613 -9.72639,0 -17.83327,-6.85214 -19.65356,-15.94056 -0.25077,1.25184 -0.37397,2.53721 -0.37397,3.86189 0,10.4741 8.20527,19.06754 18.61511,19.78207 0.0335,10.9132 8.98245,19.76103 20.02785,19.76103 11.05205,0 20.00525,-8.859 20.02785,-19.78207 0.0223,10.92307 8.99642,19.78207 20.04847,19.78207 11.05205,0 20.00525,-8.859 20.02785,-19.78207 0.0224,10.92307 8.9758,19.78207 20.02785,19.78207 11.05206,0 20.00525,-8.859 20.02786,-19.78207 0.0223,10.92307 8.99641,19.78207 20.04846,19.78207 11.04541,0 19.99462,-8.84783 20.02786,-19.76103 0.41152,0.025 0.8287,0.0411 1.24654,0.0411 11.06602,0 20.02786,-8.88135 20.02786,-19.82282 0,-1.32468 -0.12319,-2.61005 -0.37397,-3.86189 -1.82055,9.08842 -9.92716,15.94056 -19.65355,15.94056 -8.32428,0 -15.46383,-5.01658 -18.49012,-12.16084 9.747,-1.34012 17.24423,-9.63138 17.24423,-19.63811 0,-1.32468 -0.12319,-2.61005 -0.37396,-3.86189 -1.82056,9.08842 -9.92717,15.94056 -19.65356,15.94056 -9.72639,0 -17.83326,-6.85214 -19.65356,-15.94056 -0.25077,1.25184 -0.39474,2.53721 -0.39474,3.86189 0,10.81197 8.76971,19.59538 19.65356,19.80245 -2.95082,6.79823 -9.62268,11.62904 -17.49287,11.97612 -0.23919,0.0105 -0.48586,0.0185 -0.72719,0.0205 -0.30395,0 -0.61349,-0.007 -0.91413,-0.0205 -7.942,-0.3498 -14.66737,-5.26485 -17.57665,-12.16084 9.65858,-1.4171 17.05675,-9.67279 17.05675,-19.61773 0,-1.32468 -0.12319,-2.61005 -0.37396,-3.86189 -1.82056,9.08842 -9.92717,15.94056 -19.65356,15.94056 -9.72639,0 -17.83327,-6.85214 -19.65356,-15.94056 -0.25077,1.25184 -0.37396,2.53721 -0.37396,3.86189 0,10.81591 8.76306,19.60196 19.65356,19.80245 -2.95542,6.79823 -9.64329,11.62904 -17.51415,11.97612 -0.24475,0.0108 -0.48021,0.0185 -0.72719,0.0205 -0.30395,0 -0.59271,-0.007 -0.89339,-0.0205 -7.942,-0.3498 -14.68399,-5.26485 -17.59725,-12.16084 9.66722,-1.40941 17.07802,-9.66622 17.07802,-19.61773 0,-1.32468 -0.12319,-2.61005 -0.37396,-3.86189 -1.82056,9.08842 -9.92717,15.94056 -19.65356,15.94056 -9.72639,0 -17.83327,-6.85214 -19.65356,-15.94056 -0.25077,1.25184 -0.39474,2.53721 -0.39474,3.86189 0,10.81197 8.76971,19.59538 19.65356,19.80245 -2.95083,6.79823 -9.62268,11.62904 -17.49288,11.97612 -0.23918,0.0105 -0.48586,0.0185 -0.72718,0.0205 -0.30395,0 -0.61349,-0.007 -0.91414,-0.0205 -7.942,-0.3498 -14.66737,-5.26485 -17.57664,-12.16084 9.65858,-1.4171 17.05675,-9.67279 17.05675,-19.61773 0,-1.32468 -0.12319,-2.61005 -0.37396,-3.86189 -1.82056,9.08842 -9.92717,15.94056 -19.65356,15.94056 -9.72639,0 -17.83327,-6.85214 -19.65356,-15.94056 z m 20.98188,25.37343 c 0.82811,9.19622 8.01447,16.57489 17.18174,17.83042 -3.01911,7.15977 -10.17581,12.18121 -18.51139,12.18121 -8.2558,0 -15.33951,-4.925 -18.40768,-11.97612 10.36463,-0.10444 18.83317,-7.99592 19.73733,-18.03617 z m 80.13136,0 c 0.82811,9.19622 8.01447,16.57489 17.18174,17.83042 -3.0191,7.15977 -10.17581,12.18121 -18.51139,12.18121 -8.26311,0 -15.3435,-4.93624 -18.40768,-11.9965 0.21482,-0.009 0.4281,-0.01 0.64405,-0.0205 10.07277,-0.41386 18.20757,-8.16156 19.09311,-17.99475 z m -40.05571,0.10271 c 0.87179,9.14429 8.03508,16.45263 17.16047,17.70749 -3.01485,7.16898 -10.14789,12.2016 -18.49012,12.2016 -8.25579,0 -15.36012,-4.92501 -18.42828,-11.97613 0.5653,-0.0106 1.13106,-0.0473 1.6828,-0.10271 9.55553,-0.88084 17.17509,-8.38506 18.07527,-17.83042 z m 80.13136,0 c 0.87166,9.14298 8.0158,16.48812 17.13986,17.74825 -3.02516,7.14663 -10.1439,12.16084 -18.46951,12.16084 -8.25579,0 -15.36011,-4.92501 -18.42828,-11.97613 0.5653,-0.0106 1.13107,-0.0473 1.6828,-0.10271 9.55553,-0.88084 17.17509,-8.38506 18.07527,-17.83042 z m -104.67005,61.00928 c -5.32206,0 -9.63996,12.70973 -9.63996,27.44406 0,14.73434 4.3179,21.69231 9.63996,21.69231 5.32206,0 9.63996,-6.95797 9.63996,-21.69231 0,-14.73433 -4.3179,-27.44406 -9.63996,-27.44406 z m 84.84497,0 c -5.32206,0 -9.61935,12.70973 -9.61935,27.44406 0,14.73434 4.29709,21.69231 9.61935,21.69231 5.32206,0 9.63996,-6.95797 9.63996,-21.69231 0,-14.73433 -4.3179,-27.44406 -9.63996,-27.44406 z m -65.98388,0.0411 c -0.16605,-0.005 -0.33267,0.01 -0.49862,0.0205 -5.31049,0.34684 -8.4825,8.30487 -7.49989,23.00699 0.98221,14.70213 5.74222,21.38204 11.05271,21.03497 5.31049,-0.34684 9.14733,-7.58574 8.16472,-22.28786 -0.9515,-14.24265 -6.07138,-21.6417 -11.21892,-21.77448 z m 84.84497,0 c -0.16605,-0.005 -0.33267,0.01 -0.49862,0.0205 -5.31049,0.34684 -8.4825,8.30487 -7.49989,23.00699 0.98221,14.70213 5.74222,21.38204 11.05271,21.03497 5.31049,-0.34684 9.16794,-7.58574 8.18533,-22.28786 -0.9515,-14.24265 -6.09219,-21.6417 -11.23953,-21.77448 z m -122.12171,0.0205 c -5.23138,0.13609 -10.6392,7.2071 -11.71754,21.67193 -1.09557,14.69424 2.69101,21.96247 7.99851,22.34965 5.30769,0.38686 10.12329,-6.25856 11.21892,-20.9528 1.09556,-14.69424 -1.94309,-22.66123 -7.25058,-23.04775 -0.0829,-0.006 -0.16628,-0.0227 -0.24931,-0.0205 z m 84.84497,0 c -5.23138,0.13609 -10.61859,7.2071 -11.69693,21.67193 -1.09557,14.69424 2.69101,21.96247 7.99851,22.34965 5.30769,0.38686 10.12329,-6.25856 11.21892,-20.9528 1.09556,-14.69424 -1.94309,-22.66123 -7.25058,-23.04775 -0.0829,-0.006 -0.18705,-0.0227 -0.27009,-0.0205 z m -24.02678,26.4186 c -2.99849,-0.0284 -6.01427,1.941 -7.79108,5.95717 -3.55323,8.03207 -7.38355,15.26481 -12.69417,15.61189 -9.12007,-3.16189 -10.98158,-17.41959 -11.63444,-9.67543 -0.65294,7.74481 -4.96192,14.70804 -10.28418,14.70804 -5.32206,0 -9.64262,-6.96454 -10.82402,-9.14101 -1.18146,-2.17685 -5.99432,4.47473 -11.30202,4.08789 -2.83216,-0.20378 -5.21223,-2.38616 -6.6682,-6.59315 -7.61889,33.78741 -16.93309,61.59301 -16.93309,61.59301 0,0 16.13132,12.69002 16.80744,3.34837 l 4.00969,-55.4015 4.11361,0.28759 -4.05131,55.81234 c -0.55617,7.66198 22.73635,8.58492 22.12604,2.50611 l -5.04855,-50.28671 4.0928,-0.41084 5.09003,50.61539 c 0.51075,5.07889 14.74582,2.71633 15.3322,-2.40338 l 5.73411,-50.06059 4.07206,0.45193 -5.58866,48.68411 c -0.74374,6.4789 19.38364,3.35521 19.38364,-3.10181 V 826.4596 h 4.0928 v 63.12527 c 0,6.45097 20.12758,9.57814 19.38364,3.10181 l -5.59118,-48.72224 4.06873,-0.45357 5.73411,50.06059 c 0.58557,5.11222 14.80233,7.47201 15.31159,2.40338 l 5.09003,-50.61539 4.0928,0.41084 -5.04855,50.28672 c -0.60984,6.07446 22.6825,5.17861 22.12604,-2.48555 l -4.05131,-55.83337 4.0928,-0.28759 4.0305,55.4015 c 0.68025,9.35073 16.82805,-3.34837 16.82805,-3.34837 0,0 -9.10744,-29.39308 -16.66185,-62.5501 -1.44666,4.89181 -4.02265,7.40036 -7.08437,7.6002 -5.31049,0.34682 -10.07343,-6.33265 -11.17704,-4.12891 -1.10401,2.20375 -5.41899,9.16205 -10.74091,9.16205 -5.32206,0 -9.61204,-6.96652 -10.61659,-13.45515 -1.00416,-6.48817 -4.14446,8.56452 -11.48885,8.4015 -5.30769,-0.38686 -9.08416,-7.65344 -12.59045,-15.5501 -1.75315,-3.94826 -4.75091,-5.96986 -7.7492,-5.99825 z" />
      <path
         id="rect3033"
         d="m 110.07922,802.40566 c 0,0 37.61314,-6.09745 56.57993,-5.97104 16.84135,0.11223 50.16304,5.97104 50.16304,5.97104 0,0 -3.2827,8.19246 -2.64208,12.35278 0.79433,5.15916 7.73723,13.65893 7.73723,13.65893 0,0 -24.78135,-6.77129 -37.51873,-7.46413 -24.83321,-1.35064 -74.88589,2.23917 -74.88589,2.23917 0,0 -3.52397,-6.57671 -3.0195,-12.1661 0.27929,-3.0949 3.58566,-8.62105 3.58566,-8.62105 z"
         sodipodi:nodetypes="cscscscsc"
         style="opacity:1;fill:#ff6600;stroke-width:0.66107327"
         inkscape:connector-curvature="0" />
      <path
         id="rect3035"
         style="opacity:1;fill:#ff6600;stroke-width:0.66107327"
         inkscape:connector-curvature="0"
         d="m 486.75445,785.09783 c 0,0 -30.02815,10.03368 -45.58173,12.73601 -21.01047,3.65003 -63.82321,4.56032 -63.82321,4.56032 0,0 -4.47985,10.97828 -3.90584,16.63865 0.31229,3.07992 3.90584,8.44291 3.90584,8.44291 0,0 29.50294,3.8916 44.35647,4.08788 6.60949,0.0873 15.31025,-0.28322 24.0999,-0.84218 l -9.72306,18.8986 c 0,0 5.89626,6.17757 9.84739,7.21039 6.51501,1.70258 20.06973,-2.40338 20.06973,-2.40338 v -25.2459 c 10.32141,-0.89175 18.07527,-1.70501 18.07527,-1.70501 0,0 8.19662,-16.29027 8.64272,-23.35605 0.44592,-7.06577 -5.96268,-19.02218 -5.96268,-19.02218 z m -3.15792,3.80023 c 0.29941,-0.003 0.58787,0.0263 0.87259,0.0822 4.55538,0.8934 6.08607,12.43101 4.00969,22.78087 -2.07632,10.34986 -8.84483,15.95042 -13.40022,15.05709 -4.55538,-0.89339 -5.96142,-11.34245 -3.8851,-21.69231 1.94654,-9.70303 7.91208,-16.18969 12.40298,-16.22847 z m 0,1.7666 c -3.63539,0.0314 -8.4599,5.29621 -10.03487,13.14686 -1.67994,8.37389 -0.54858,16.7997 3.13718,17.52212 3.68572,0.72288 9.18589,-3.78682 10.8659,-12.16084 1.67995,-8.37388 0.42394,-17.72393 -3.26176,-18.44635 -0.23036,-0.0452 -0.46403,-0.0637 -0.70638,-0.0616 z m -0.1662,3.61539 c 0.20107,-0.002 0.41121,0.0241 0.60249,0.0616 3.06046,0.60024 4.07505,8.32985 2.68005,15.28322 -1.39494,6.95337 -5.93543,10.72717 -8.99575,10.12702 -3.06046,-0.60023 -3.99194,-7.61071 -2.59694,-14.56408 1.30778,-6.51887 5.29427,-10.88231 8.31031,-10.90795 z m -30.81066,48.6026 c 7.25391,0 12.65229,3.49325 12.65229,6.61418 0,3.12126 -7.58034,5.64907 -14.83358,5.64907 -7.2539,0 -11.92563,-3.71924 -11.92563,-6.8403 0,-3.12126 6.85302,-5.42308 14.10692,-5.42308 z m 1.205,1.37635 c -5.86908,0 -11.40574,1.8706 -11.40574,4.39597 0,2.52538 3.77089,5.54633 9.63996,5.54633 5.86908,0 12.00807,-2.05544 12.00807,-4.58089 0,-2.52538 -4.37341,-5.36141 -10.24229,-5.36141 z m -0.72719,1.212 c 4.87344,0 8.49713,2.34008 8.49713,4.43707 0,2.09699 -5.0782,3.80023 -9.95176,3.80023 -4.87344,0 -8.01912,-2.50441 -8.01912,-4.6014 0,-2.09699 4.60032,-3.6359 9.47375,-3.6359 z" />
    </g>
  </g>
  <metadata
     id="metadata11">
    <rdf:RDF>
      <cc:Work>
        <dc:format>image/svg+xml</dc:format>
        <dc:type
           rdf:resource="http://purl.org/dc/dcmitype/StillImage" />
        <cc:license
           rdf:resource="http://creativecommons.org/licenses/publicdomain/" />
        <dc:publisher>
          <cc:Agent
             rdf:about="http://openclipart.org/">
            <dc:title>Openclipart</dc:title>
          </cc:Agent>
        </dc:publisher>
      </cc:Work>
      <cc:License
         rdf:about="http://creativecommons.org/licenses/publicdomain/">
        <cc:permits
           rdf:resource="http://creativecommons.org/ns#Reproduction" />
        <cc:permits
           rdf:resource="http://creativecommons.org/ns#Distribution" />
        <cc:permits
           rdf:resource="http://creativecommons.org/ns#DerivativeWorks" />
      </cc:License>
    </rdf:RDF>
  </metadata>
</svg>
